<svg width="13" height="13" viewBox="0 0 13 13" fill="none" xmlns="http://www.w3.org/2000/svg">
<path d="M0.508932 2.61697C0.460253 3.25637 0.614962 3.87965 0.861548 4.53624L0.862202 4.53798C1.36452 5.89079 2.13269 7.10157 3.07722 8.22335L3.07741 8.22357C4.34724 9.73344 5.85991 10.9251 7.62962 11.7854C8.42668 12.1724 9.21395 12.4502 10.0508 12.4959L10.0515 12.496C10.5783 12.5255 10.972 12.3971 11.2934 12.0369L11.2938 12.0364C11.5054 11.8 11.7466 11.5654 11.9717 11.3465C12.0813 11.2399 12.187 11.137 12.2837 11.0395C12.452 10.8689 12.4995 10.7207 12.5 10.6118C12.5005 10.5039 12.455 10.3593 12.2903 10.1936C11.7231 9.6234 11.1528 9.05604 10.5813 8.48761C10.4217 8.33023 10.2786 8.28455 10.1705 8.28455C10.0626 8.28455 9.92047 8.33012 9.76246 8.48712L9.7621 8.48748C9.40549 8.84108 9.05238 9.19123 8.70568 9.54681L8.34769 9.19775M0.508932 2.61697L3.79301 4.65218C3.70025 4.74495 3.69127 4.81976 3.73915 4.93347L3.27819 5.12718C3.27824 5.12729 3.27829 5.1274 3.27833 5.12751C3.53953 5.74896 3.90839 6.28988 4.30603 6.7783L4.30625 6.77858C5.09686 7.74828 6.00097 8.62422 7.09094 9.30978L7.09319 9.31118C7.22556 9.39346 7.36042 9.46215 7.48052 9.52163C7.5081 9.53529 7.53463 9.54833 7.56034 9.56098C7.65148 9.6058 7.73225 9.64552 7.81257 9.68924C7.93216 9.75597 8.10426 9.81723 8.30696 9.77669C8.49875 9.73834 8.62966 9.62521 8.70663 9.54583L8.34769 9.19775M0.508932 2.61697C0.536164 2.27108 0.658874 1.99862 0.898846 1.7714L0.898847 1.7714L0.899593 1.77069C1.1213 1.5599 1.34545 1.33359 1.56324 1.11371C1.70358 0.972021 1.84128 0.833 1.97398 0.702523L1.97467 0.701838C2.13233 0.546204 2.27499 0.500156 2.3846 0.5C2.49443 0.499845 2.63803 0.545692 2.79727 0.700721C2.98824 0.887754 3.17457 1.07538 3.3637 1.26583C3.45942 1.36222 3.55586 1.45933 3.65398 1.55746L0.508932 2.61697ZM8.34769 9.19775C8.25193 9.2965 8.17113 9.31745 8.05442 9.25162L12.639 11.3912C13.1178 10.9065 13.1208 10.3199 12.645 9.84113C12.0765 9.26966 11.505 8.70118 10.9335 8.1327L10.9333 8.13243C10.4634 7.6686 9.87689 7.6686 9.41005 8.13243C9.05393 8.48554 8.69782 8.83865 8.34769 9.19775ZM3.14662 0.343013C2.67679 -0.114835 2.09025 -0.114835 1.62341 0.346006C1.47973 0.487286 1.33845 0.630004 1.19726 0.772625C0.985566 0.986468 0.774086 1.20009 0.555067 1.40834C0.216908 1.72853 0.0463326 2.12054 0.010422 2.57839L3.14662 0.343013Z" stroke="#433C3C"/>
</svg>
