<svg width="26" height="26" viewBox="0 0 26 26" fill="none" xmlns="http://www.w3.org/2000/svg">
<path d="M24.0874 4.33327C24.0874 6.27783 22.5112 7.85423 20.5666 7.85423C18.622 7.85423 17.0458 6.27783 17.0458 4.33327C17.0458 2.3889 18.622 0.8125 20.5666 0.8125C22.5112 0.8125 24.0874 2.3889 24.0874 4.33327Z" fill="#005BC5"/>
<path d="M20.5666 8.66673C18.1767 8.66673 16.2333 6.72316 16.2333 4.33327C16.2333 1.94357 18.1767 0 20.5666 0C22.9565 0 24.8999 1.94357 24.8999 4.33327C24.8999 6.72316 22.9565 8.66673 20.5666 8.66673ZM20.5666 1.625C19.0727 1.625 17.8583 2.84058 17.8583 4.33327C17.8583 5.82616 19.0727 7.04173 20.5666 7.04173C22.0605 7.04173 23.2749 5.82616 23.2749 4.33327C23.2749 2.84058 22.0605 1.625 20.5666 1.625Z" fill="#005BC5"/>
<path d="M24.0874 21.6664C24.0874 23.6108 22.5112 25.1872 20.5666 25.1872C18.622 25.1872 17.0458 23.6108 17.0458 21.6664C17.0458 19.7219 18.622 18.1455 20.5666 18.1455C22.5112 18.1455 24.0874 19.7219 24.0874 21.6664Z" fill="#005BC5"/>
<path d="M20.5666 25.9997C18.1767 25.9997 16.2333 24.0561 16.2333 21.6664C16.2333 19.2765 18.1767 17.333 20.5666 17.333C22.9565 17.333 24.8999 19.2765 24.8999 21.6664C24.8999 24.0561 22.9565 25.9997 20.5666 25.9997ZM20.5666 18.958C19.0727 18.958 17.8583 20.1735 17.8583 21.6664C17.8583 23.1591 19.0727 24.3747 20.5666 24.3747C22.0605 24.3747 23.2749 23.1591 23.2749 21.6664C23.2749 20.1735 22.0605 18.958 20.5666 18.958Z" fill="#005BC5"/>
<path d="M8.92064 13.0003C8.92064 14.9449 7.34424 16.5211 5.39967 16.5211C3.45531 16.5211 1.87891 14.9449 1.87891 13.0003C1.87891 11.0557 3.45531 9.47955 5.39967 9.47955C7.34424 9.47955 8.92064 11.0557 8.92064 13.0003Z" fill="#005BC5"/>
<path d="M5.39967 17.3336C3.00998 17.3336 1.06641 15.3902 1.06641 13.0003C1.06641 10.6104 3.00998 8.66705 5.39967 8.66705C7.78957 8.66705 9.73314 10.6104 9.73314 13.0003C9.73314 15.3902 7.78957 17.3336 5.39967 17.3336ZM5.39967 10.292C3.90579 10.292 2.69141 11.5074 2.69141 13.0003C2.69141 14.4932 3.90579 15.7086 5.39967 15.7086C6.89375 15.7086 8.10814 14.4932 8.10814 13.0003C8.10814 11.5074 6.89375 10.292 5.39967 10.292Z" fill="#005BC5"/>
<path d="M7.95777 12.4803C7.58068 12.4803 7.2145 12.2841 7.01514 11.9332C6.71938 11.4143 6.90148 10.7524 7.4204 10.4554L17.4725 4.72469C17.9914 4.42674 18.6534 4.60884 18.9503 5.12975C19.2461 5.64867 19.064 6.31061 18.5451 6.60756L8.49275 12.3383C8.32375 12.4347 8.13967 12.4803 7.95777 12.4803Z" fill="#005BC5"/>
<path d="M18.0085 21.4176C17.8264 21.4176 17.6423 21.372 17.4733 21.2756L7.42098 15.5449C6.90206 15.2491 6.72016 14.5872 7.01592 14.0671C7.31049 13.5471 7.97342 13.3641 8.49354 13.662L18.5458 19.3927C19.0648 19.6885 19.2467 20.3504 18.9509 20.8706C18.7506 21.2215 18.3844 21.4176 18.0085 21.4176Z" fill="#005BC5"/>
</svg>
