<svg width="156" height="59" viewBox="0 0 156 59" fill="none" xmlns="http://www.w3.org/2000/svg">
<path fill-rule="evenodd" clip-rule="evenodd" d="M43.9097 30.6897C42.5209 22.6311 50.7997 18.1948 47.0567 7.35921C44.7579 16.0544 36.458 21.851 43.9097 30.6897ZM51.8087 33.749C49.7999 22.0918 61.1361 13.6725 56.3612 0C55.2738 11.8406 42.628 20.7527 51.8087 33.749ZM60.3508 30.6897C58.1633 21.1237 68.5822 14.7166 63.9729 3.83864C62.0026 13.332 51.7941 19.7669 60.3508 30.6897Z" fill="#B0B1B2"/>
<path fill-rule="evenodd" clip-rule="evenodd" d="M154.149 22.7332C153.447 22.0391 152.477 21.6097 151.406 21.6097C150.334 21.6097 149.364 22.039 148.662 22.7332C147.96 23.4272 147.526 24.3862 147.526 25.4454C147.526 26.5046 147.96 27.4636 148.662 28.1577C149.364 28.8517 150.334 29.281 151.406 29.281C152.477 29.281 153.447 28.8517 154.149 28.1577C154.851 27.4635 155.285 26.5046 155.285 25.4454C155.285 24.3862 154.851 23.4272 154.149 22.7332ZM151.406 20.903C152.674 20.903 153.823 21.4114 154.654 22.2335C155.486 23.0554 156 24.1911 156 25.4454C156 26.6997 155.486 27.8353 154.654 28.6574C153.823 29.4794 152.674 29.9878 151.406 29.9878C150.137 29.9878 148.988 29.4794 148.157 28.6574C147.326 27.8353 146.811 26.6997 146.811 25.4454C146.811 24.191 147.326 23.0554 148.157 22.2335C148.988 21.4114 150.137 20.903 151.406 20.903ZM150.237 25.0483H151.662C151.965 25.0483 152.201 25.0171 152.372 24.9548C152.542 24.8936 152.672 24.7943 152.759 24.6569C152.848 24.5206 152.893 24.3729 152.893 24.2124C152.893 23.9781 152.807 23.7841 152.636 23.6329C152.464 23.4816 152.193 23.4066 151.823 23.4066H150.237V25.0483ZM149.572 27.8191V22.8593H151.795C152.242 22.8593 152.582 22.9043 152.814 22.9932C153.047 23.0822 153.232 23.2391 153.371 23.4643C153.51 23.6894 153.579 23.9388 153.579 24.2112C153.579 24.5634 153.464 24.8601 153.234 25.1014C153.003 25.3427 152.648 25.4951 152.167 25.5609C152.344 25.644 152.477 25.7271 152.568 25.8079C152.762 25.9834 152.945 26.204 153.117 26.4683L153.984 27.8191H153.155L152.492 26.787C152.299 26.488 152.139 26.2605 152.014 26.1023C151.888 25.9442 151.776 25.8345 151.677 25.771C151.579 25.7086 151.477 25.6648 151.374 25.6394C151.3 25.6244 151.177 25.6163 151.005 25.6163H150.237V27.8191H149.572Z" fill="#C4C6C8"/>
<path fill-rule="evenodd" clip-rule="evenodd" d="M21.4366 8.04303L22.086 7.12366C21.2384 6.65653 20.2291 6.4154 19.0554 6.4154C17.6988 6.4154 16.6146 6.68668 15.7876 7.2292C14.9453 7.77172 14.4523 8.49512 14.2906 9.41441C14.2403 9.70068 14.241 9.95692 14.2927 10.183C14.3444 10.409 14.4319 10.6049 14.5704 10.7707C14.7188 10.9666 14.9031 11.1324 15.1258 11.2529C15.3485 11.3735 15.6069 11.464 15.8859 11.5242L17.4864 11.8708C18.1485 12.0065 18.6223 12.1722 18.9079 12.3681C19.1936 12.5641 19.303 12.8956 19.2208 13.3628C19.1705 13.6492 19.0618 13.9204 18.8948 14.1766C18.7278 14.4328 18.5078 14.6438 18.25 14.8096C17.9717 15.0055 17.6251 15.1562 17.2102 15.2617C16.7954 15.3671 16.2817 15.4275 15.6568 15.4275C15.3672 15.4275 15.0954 15.4124 14.8569 15.3823C14.6184 15.3521 14.3797 15.3219 14.1591 15.2767C13.9383 15.2315 13.7203 15.1712 13.5076 15.0808C13.2949 14.9904 13.0696 14.8849 12.8317 14.7644L12.159 15.7289C12.3942 15.8645 12.6169 15.9851 12.8422 16.0905C13.0676 16.196 13.2956 16.2864 13.5441 16.3467C13.7926 16.407 14.059 16.4523 14.3434 16.4823C14.6277 16.5125 14.9604 16.5276 15.3262 16.5276C16.0426 16.5276 16.7265 16.4523 17.3779 16.3015C18.0294 16.1508 18.6106 15.8796 19.1188 15.5028C19.9591 14.8849 20.4707 14.056 20.6536 13.0162C20.7039 12.7299 20.7032 12.4737 20.6515 12.2476C20.5998 12.0215 20.4971 11.8256 20.3586 11.6599C20.1723 11.4188 19.9172 11.2228 19.6083 11.0721C19.2995 10.9214 18.9397 10.8008 18.544 10.7105L17.0323 10.3789C16.4895 10.2583 16.1171 10.1227 15.9023 9.95694C15.6876 9.79113 15.6134 9.51989 15.6797 9.14311C15.73 8.85677 15.8334 8.61565 15.9897 8.41974C16.1461 8.22383 16.3277 8.05807 16.5497 7.92243C16.8075 7.75668 17.1183 7.6361 17.4822 7.56078C17.846 7.4854 18.2324 7.45522 18.6592 7.45522C19.1621 7.45522 19.6267 7.50044 20.0681 7.59087C20.5095 7.6813 20.9707 7.83199 21.4392 8.0279L21.4366 8.04303ZM29.095 9.5651C28.8863 9.27876 28.5907 9.05269 28.2083 8.88695C27.8259 8.72113 27.3361 8.64582 26.7569 8.64582C26.193 8.64582 25.6615 8.72113 25.1751 8.88695C24.6886 9.05269 24.2373 9.27876 23.8364 9.5651C23.1571 10.0474 22.6118 10.6351 22.2181 11.3133C21.8245 11.9914 21.5654 12.6847 21.4408 13.3929C21.3613 13.8451 21.3481 14.2671 21.4011 14.6588C21.4542 15.0507 21.5788 15.3823 21.7902 15.6535C21.999 15.9398 22.2946 16.1659 22.6769 16.3317C23.0593 16.4974 23.5338 16.5728 24.0978 16.5728C24.7532 16.5728 25.3483 16.4824 25.8831 16.3015C26.4179 16.1207 26.9077 15.8494 27.3524 15.4877C27.9401 15.0055 28.4219 14.4328 28.7797 13.7848C29.1375 13.1367 29.3735 12.4887 29.4874 11.8407C29.6518 10.9063 29.5252 10.1529 29.105 9.59521L29.095 9.5651ZM26.4647 9.70069C27.242 9.70069 27.759 9.88156 28.0307 10.2433C28.2647 10.5597 28.3297 11.057 28.213 11.7201C28.115 12.2777 27.946 12.8052 27.7035 13.3176C27.461 13.83 27.1376 14.2821 26.736 14.6588C26.4622 14.9151 26.1482 15.1411 25.7962 15.3219C25.4444 15.5028 24.9864 15.5932 24.4377 15.5932C23.9652 15.5932 23.61 15.533 23.3873 15.4124C23.1646 15.2918 22.9804 15.126 22.8472 14.9301C22.7391 14.7644 22.6696 14.5533 22.651 14.3123C22.6324 14.0711 22.6467 13.8149 22.6921 13.5587C22.8007 12.9408 22.9776 12.3681 23.2407 11.8256C23.5037 11.2831 23.8756 10.8159 24.3686 10.4392C24.6317 10.2433 24.9199 10.0775 25.2487 9.94181C25.5773 9.80624 25.9842 9.7459 26.472 9.7459L26.4647 9.70069ZM36.0883 16.2563L38.5659 8.84173H37.2702L35.2943 14.704C34.4215 15.2466 33.5507 15.5178 32.6819 15.5178C32.0874 15.5178 31.6666 15.3973 31.4194 15.1562C31.1722 14.9151 31.1039 14.5232 31.202 13.9656C31.2205 13.8601 31.239 13.7546 31.2755 13.634C31.3119 13.5135 31.3484 13.3929 31.3848 13.2724L32.8804 8.84173H31.5848L30.1168 13.2021C30.0572 13.3678 30.0128 13.5336 29.9711 13.6843C29.9293 13.835 29.9028 13.9857 29.8789 14.1214C29.7336 14.9477 29.8568 15.548 30.2604 15.9398C30.6639 16.3317 31.3459 16.5276 32.3215 16.5276H32.5806L35.0206 15.6535L35.1499 16.3919L36.0883 16.2563ZM38.8591 16.3618L42.3074 6.11401H40.9965L37.5635 16.3618H38.8591ZM77.8184 8.04303L78.4678 7.12366C77.6203 6.65653 76.6109 6.4154 75.4372 6.4154C74.0807 6.4154 72.9964 6.68668 72.1693 7.2292C71.3271 7.77172 70.8341 8.49512 70.6724 9.41441C70.6221 9.70068 70.6227 9.95692 70.6745 10.183C70.7262 10.409 70.8137 10.6049 70.9522 10.7707C71.1007 10.9666 71.285 11.1324 71.5076 11.2529C71.7303 11.3735 71.9888 11.464 72.2678 11.5242L73.8683 11.8708C74.5303 12.0065 75.0042 12.1722 75.2898 12.3681C75.5754 12.5641 75.6848 12.8956 75.6027 13.3628C75.5523 13.6492 75.4436 13.9204 75.2767 14.1766C75.1097 14.4328 74.8897 14.6438 74.6319 14.8096C74.3535 15.0055 74.0069 15.1562 73.5921 15.2617C73.1772 15.3671 72.6636 15.4275 72.0386 15.4275C71.749 15.4275 71.4773 15.4124 71.2388 15.3823C71.0002 15.3521 70.7616 15.3219 70.5409 15.2767C70.3202 15.2315 70.1022 15.1712 69.8895 15.0808C69.6768 14.9904 69.4514 14.8849 69.2135 14.7644L68.5408 15.7289C68.7761 15.8645 68.9988 15.9851 69.2241 16.0905C69.4495 16.196 69.6775 16.2864 69.926 16.3467C70.1745 16.407 70.4409 16.4523 70.7252 16.4823C71.0095 16.5125 71.3422 16.5276 71.708 16.5276C72.4244 16.5276 73.1083 16.4523 73.7597 16.3015C74.4112 16.1508 74.9924 15.8796 75.5007 15.5028C76.341 14.8849 76.8525 14.056 77.0354 13.0162C77.0858 12.7299 77.0851 12.4737 77.0333 12.2476C76.9815 12.0215 76.8788 11.8256 76.7403 11.6599C76.5541 11.4188 76.2989 11.2228 75.9901 11.0721C75.6813 10.9214 75.3214 10.8008 74.9257 10.7105L73.4141 10.3789C72.8713 10.2583 72.4989 10.1227 72.2841 9.95694C72.0694 9.79113 71.9952 9.51989 72.0615 9.14311C72.1118 8.85677 72.2151 8.61565 72.3716 8.41974C72.528 8.22383 72.7095 8.05807 72.9315 7.92243C73.1893 7.75668 73.5001 7.6361 73.864 7.56078C74.2278 7.4854 74.6142 7.45522 75.041 7.45522C75.5439 7.45522 76.0085 7.50044 76.4498 7.59087C76.8912 7.6813 77.3525 7.83199 77.821 8.0279L77.8184 8.04303ZM81.0338 6.74695L79.9285 8.87188L78.566 8.99242L78.2605 9.77608L79.5654 9.89666L78.2559 13.7898C78.1598 14.0761 78.0821 14.3449 78.037 14.6011C77.976 14.9477 77.984 15.2491 78.0487 15.4877C78.113 15.7289 78.2309 15.9247 78.4026 16.0755C78.5742 16.2262 78.7996 16.3317 79.0607 16.407C79.3218 16.4824 79.6214 16.5125 79.9567 16.5125C80.3377 16.5125 80.7268 16.4673 81.1059 16.3919C81.4849 16.3166 81.8414 16.196 82.1602 16.0303L82.1047 15.219C81.8297 15.3093 81.573 15.3823 81.3364 15.4275C81.0998 15.4726 80.8507 15.5028 80.5915 15.5028C80.119 15.5028 79.7817 15.4275 79.5818 15.2642C79.3823 15.0984 79.3133 14.797 79.3902 14.36C79.4242 14.1666 79.4713 13.9857 79.5335 13.8048L80.8511 9.86651L83.822 9.70069L84.0493 8.84173H81.2142L81.8764 6.80975L81.0338 6.74695ZM84.7095 13.0614L86.7407 13.2121H87.4267C87.8992 13.2121 88.3465 13.182 88.7865 13.1066C89.2266 13.0313 89.6289 12.9107 89.9808 12.7299C90.3326 12.549 90.6342 12.3079 90.8853 12.0065C91.1365 11.7051 91.2915 11.3434 91.3684 10.9063C91.5035 10.1378 91.3299 9.5651 90.8448 9.20337C90.3597 8.84172 89.6446 8.66087 88.7148 8.66087C88.0136 8.66087 87.3523 8.78146 86.7485 9.00747C86.1448 9.23354 85.5961 9.58016 85.1051 10.0322C84.5756 10.5296 84.1574 11.0872 83.8632 11.7201C83.5689 12.3531 83.3689 12.971 83.2628 13.5738C83.1012 14.4931 83.2483 15.2165 83.7017 15.759C84.155 16.3015 84.9761 16.5728 86.1802 16.5728C86.7595 16.5728 87.3009 16.5276 87.8072 16.4221C88.3135 16.3166 88.7947 16.181 89.2533 16.0001L89.242 15.111C88.7403 15.2767 88.277 15.3973 87.8396 15.4576C87.4023 15.5179 86.9702 15.548 86.5282 15.548C85.7813 15.548 85.2259 15.4124 84.862 15.1411C84.4982 14.8698 84.3875 14.3725 84.5147 13.6492C84.5412 13.4985 84.5883 13.3176 84.6532 13.1217L84.7095 13.0614ZM87.4717 12.2627L84.9235 12.2777C85.278 11.3886 85.7426 10.7406 86.3145 10.3488C86.8864 9.95693 87.5763 9.76101 88.3841 9.76101C89.0243 9.76101 89.4783 9.8665 89.7308 10.0775C89.9833 10.2885 90.0801 10.6049 90.0059 11.0269C89.9608 11.2831 89.8627 11.4941 89.7295 11.6448C89.5964 11.7955 89.4075 11.916 89.1782 12.0065C88.9489 12.0969 88.6944 12.1572 88.3969 12.2024C88.0993 12.2476 87.7765 12.2627 87.426 12.2627H87.4717ZM92.9709 13.0614L95.0022 13.2121H95.6881C96.1606 13.2121 96.6079 13.182 97.048 13.1066C97.488 13.0313 97.8903 12.9107 98.2421 12.7299C98.594 12.549 98.8956 12.3079 99.1467 12.0065C99.3979 11.7051 99.5529 11.3434 99.6298 10.9063C99.7649 10.1378 99.5913 9.5651 99.1062 9.20337C98.6211 8.84172 97.906 8.66087 96.9762 8.66087C96.2751 8.66087 95.6137 8.78146 95.0099 9.00747C94.4062 9.23354 93.8575 9.58016 93.3665 10.0322C92.8369 10.5296 92.4188 11.0872 92.1246 11.7201C91.8303 12.3531 91.6302 12.971 91.5242 13.5738C91.3626 14.4931 91.5097 15.2165 91.9631 15.759C92.4163 16.3015 93.2375 16.5728 94.4416 16.5728C95.0209 16.5728 95.5623 16.5276 96.0686 16.4221C96.5749 16.3166 97.056 16.181 97.5146 16.0001L97.5033 15.111C97.0017 15.2767 96.5384 15.3973 96.101 15.4576C95.6637 15.5179 95.2315 15.548 94.7895 15.548C94.0426 15.548 93.4872 15.4124 93.1235 15.1411C92.7596 14.8698 92.6489 14.3725 92.7761 13.6492C92.8026 13.4985 92.8497 13.3176 92.9146 13.1217L92.9709 13.0614ZM95.7331 12.2627L93.185 12.2777C93.5394 11.3886 94.004 10.7406 94.5759 10.3488C95.1478 9.95693 95.8377 9.76101 96.6455 9.76101C97.2857 9.76101 97.7397 9.8665 97.9922 10.0775C98.2447 10.2885 98.3414 10.6049 98.2672 11.0269C98.2222 11.2831 98.1241 11.4941 97.9909 11.6448C97.8578 11.7955 97.6689 11.916 97.4396 12.0065C97.2103 12.0969 96.9558 12.1572 96.6583 12.2024C96.3607 12.2476 96.0379 12.2627 95.6874 12.2627H95.7331ZM100.347 16.3618L103.795 6.11401H102.485L99.0514 16.3618H100.347ZM108.698 24.6135H113.951L109.397 37.7034H104.144L108.698 24.6135ZM118.828 25.0165H130.6C133.666 25.0165 136.173 25.208 138.114 25.5909C140.055 25.9739 141.54 26.5562 142.572 27.3539C144.484 28.8935 145.648 30.848 146.082 33.2093C146.508 35.5705 146.184 38.3068 145.105 41.4258C143.919 44.8561 142.259 47.7679 140.13 50.1691C138 52.5703 135.342 54.5405 132.147 56.0803C130.565 56.8301 128.68 57.3805 126.496 57.7235C124.312 58.0667 121.487 58.2341 118.001 58.2341H107.343L118.828 25.0165ZM125.615 31.4304L118.647 51.581H122.52C125.675 51.581 128.407 50.7036 130.735 48.9406C133.063 47.1776 134.782 44.6806 135.904 41.4339C137.013 38.2271 136.973 35.7541 135.788 34.0229C134.595 32.2919 132.335 31.4304 129.019 31.4304H125.615ZM96.3044 22.3361H104.825L92.4128 58.2341H83.8927L96.3044 22.3361ZM81.4044 22.3361H89.9247L77.5129 58.2341H68.9927L81.4044 22.3361ZM66.5045 22.3361H75.0247L72.6583 29.1807H64.138L66.5045 22.3361ZM62.5991 33.632H71.1193L62.6129 58.2341H54.0927L62.5991 33.632ZM59.5467 33.2492L56.5821 40.5164C56.2849 40.3728 55.9336 40.2691 55.5387 40.1973C55.1359 40.1256 54.6468 40.0936 54.082 40.0936C52.0487 40.0936 50.2921 40.7399 48.8127 42.0321C47.3329 43.3245 46.1575 45.231 45.2915 47.7359L41.6617 58.2341H33.1413L41.6477 33.632H49.2483L47.6264 38.3227C49.1213 36.4959 50.6443 35.1479 52.1983 34.2703C53.7416 33.4007 55.3696 32.962 57.0721 32.962C57.5078 32.962 58.2842 33.0498 59.3856 33.2252L59.5467 33.2492ZM37.5115 25.7664L34.3402 32.6748C33.2414 31.9088 32.0038 31.3345 30.6435 30.9517C29.2753 30.5687 27.8085 30.3773 26.235 30.3773C22.5638 30.3773 19.3197 31.3825 16.5109 33.3927C13.6938 35.403 11.6879 38.1472 10.4854 41.6254C9.32691 44.9759 9.34974 47.6403 10.5538 49.6186C11.7658 51.597 13.9653 52.5863 17.1685 52.5863C17.8381 52.5863 18.4786 52.5543 19.0655 52.4904C19.6523 52.4266 20.2232 52.3389 20.7675 52.2113L23.17 45.263H17.99L20.1579 38.9929H33.6646L27.2629 57.5082C25.3247 58.0027 23.3637 58.3777 21.3658 58.625C19.3763 58.8723 17.3795 59 15.3785 59C8.83495 59 4.36967 57.5401 1.9795 54.6283C-0.41039 51.7167 -0.63492 47.4648 1.29864 41.8726C3.23476 36.2726 6.45673 31.9249 10.9775 28.8138C15.4876 25.7105 20.8586 24.1551 27.0794 24.1551C28.9431 24.1551 30.744 24.2906 32.4818 24.5619C34.2168 24.841 35.8941 25.24 37.5115 25.7664Z" fill="#B0B1B2"/>
</svg>
