<svg width="263" height="46" viewBox="0 0 263 46" fill="none" xmlns="http://www.w3.org/2000/svg">
<path fill-rule="evenodd" clip-rule="evenodd" d="M1.24482 0H44.7552C45.4406 0 46 0.559347 46 1.24481V44.7552C46 45.4406 45.4406 46 44.7552 46H1.24482C0.559268 46 0 45.4406 0 44.7552V1.24481C0 0.559347 0.559268 0 1.24482 0Z" fill="#B0B1B2"/>
<path fill-rule="evenodd" clip-rule="evenodd" d="M23 0H44.7789C45.4511 0 46 0.559445 46 1.24456V44.7554C46 45.4406 45.4511 46 44.7789 46H23V0Z" fill="#B0B1B2"/>
<path fill-rule="evenodd" clip-rule="evenodd" d="M147.227 34C145.813 34 144.46 33.8205 143.167 33.462C141.874 33.1031 140.818 32.635 140 32.0581V29.88C140.781 30.5098 141.795 31.0522 143.041 31.507C144.381 31.9617 145.729 32.1891 147.088 32.1891C148.631 32.1891 149.896 31.8741 150.882 31.2443C151.604 30.7832 152.061 30.2101 152.254 29.5241H154.417C154.214 30.7826 153.53 31.8017 152.361 32.5828C150.966 33.5276 149.254 34 147.227 34ZM152.361 28.7324V28.7258C152.473 27.7458 151.933 26.915 150.743 26.2322C150.5 26.0578 150.11 25.8826 149.571 25.7075L148.343 25.3138C148.287 25.2962 148.175 25.266 148.008 25.2219C147.84 25.1784 147.659 25.1262 147.464 25.0644C147.268 25.0033 147.069 24.9466 146.864 24.8944C145.711 24.5794 145.022 24.3866 144.799 24.3168C144.204 24.1241 143.627 23.9054 143.069 23.6605C142.455 23.3808 141.972 23.0747 141.618 22.7421C140.898 22.0342 140.495 21.1775 140.409 20.1716H142.474C142.536 20.7454 142.957 21.3135 143.739 21.876C143.888 21.9988 144.194 22.1387 144.66 22.2962L145.608 22.6369L146.808 22.9518L147.98 23.2667C149.003 23.5647 149.645 23.7568 149.906 23.8443C150.445 24.0195 151.012 24.2557 151.607 24.553C152.222 24.8502 152.724 25.1829 153.114 25.55C154.026 26.3374 154.481 27.3873 154.481 28.6994V28.7328L152.361 28.7324ZM140.405 19.3794C140.504 18.1632 141.094 17.1497 142.177 16.3384C143.367 15.4466 145.022 15 147.143 15C149.487 15 151.514 15.5077 153.226 16.5224V18.5165C151.291 17.3796 149.282 16.8109 147.199 16.8109C145.692 16.8109 144.529 17.0905 143.711 17.6505C143.028 18.1172 142.631 18.6935 142.517 19.3794H140.405ZM165.42 33.6851H163.355V17.8634H165.42V33.6851ZM157.25 17.0735H156.63V15.3149H172.228V17.0717H157.25V17.0735ZM216.872 33.6851H214.835V15.3149H216.872V33.6851ZM217.714 16.3756L223.931 24.2112L230.116 16.4171V19.319L224.573 26.2847H223.318L217.714 19.3032V16.3756ZM230.957 15.3149H233V33.6851H230.963C230.963 27.5822 231.056 21.4095 230.957 15.3149H230.957ZM189.782 33.6851H175.97V15.3149H189.363V17.0735H178.035C178.035 22.0312 178.035 26.9839 178.035 31.927H189.782V33.6851ZM178.862 22.9514H187.326V24.71H178.862V22.9514ZM194.051 33.6851H191.903L200.608 15.2103H202.534L211.267 33.6851H209.091L206.663 28.6203H197.272L198.063 26.9146H205.993L201.557 17.6505L194.051 33.6851Z" fill="#B0B1B2"/>
<path fill-rule="evenodd" clip-rule="evenodd" d="M249.883 0C254.399 0.200824 258 3.92985 258 8.50004C258 13.0701 254.399 16.7992 249.883 17V15.3787C253.505 15.1799 256.383 12.1758 256.383 8.50004C256.383 4.82415 253.505 1.82007 249.883 1.62134V0ZM249.004 16.9945C244.541 16.7369 241 13.0324 241 8.50004C241 3.96762 244.541 0.263151 249.004 0.00563716V1.62835C245.435 1.88304 242.617 4.86264 242.617 8.50004C242.617 12.1374 245.435 15.117 249.004 15.3717V16.9945Z" fill="#B0B1B2"/>
<path fill-rule="evenodd" clip-rule="evenodd" d="M249.938 5.59508C250.434 5.59508 250.807 5.65431 251.051 5.77275C251.297 5.88907 251.469 6.04039 251.568 6.22249C251.668 6.40459 251.722 6.65034 251.731 6.96409C251.722 7.27793 251.668 7.52368 251.568 7.70578C251.469 7.88787 251.297 8.03922 251.051 8.15553C250.807 8.27406 250.434 8.33328 249.938 8.33328H248.926V5.59508H249.938ZM252.029 13H254L252.187 9.56629C252.512 9.40822 252.767 9.19554 252.948 8.92558C253.397 8.2565 253.621 7.60268 253.616 6.96409C253.621 6.32569 253.397 5.67177 252.948 5.0026C252.498 4.33556 251.597 4 250.247 4H247V13H248.926V9.92836H250.367L252.029 13Z" fill="#B0B1B2"/>
<path fill-rule="evenodd" clip-rule="evenodd" d="M80.7927 33.6851H67V15.3149H80.3747V17.0735H69.0619C69.0619 22.0312 69.0619 26.9839 69.0619 31.927H80.7927V33.6851ZM69.8879 22.9514H78.3409V24.71H69.8879V22.9514ZM85.0564 33.6851H82.9109L91.6046 15.2103H93.5273L102.249 33.6851H100.076L97.6512 28.6203H88.2732L89.0631 26.9146H96.9824L92.5523 17.6505L85.0564 33.6851ZM111.612 34C110.2 34 108.848 33.8205 107.558 33.462C106.266 33.1031 105.212 32.635 104.395 32.0581V29.88C105.175 30.5098 106.187 31.0522 107.432 31.507C108.769 31.9617 110.116 32.1891 111.473 32.1891C113.014 32.1891 114.278 31.8741 115.262 31.2443C115.983 30.7832 116.44 30.2101 116.632 29.5241H118.792C118.589 30.7826 117.906 31.8017 116.739 32.5828C115.346 33.5276 113.636 34 111.612 34ZM116.739 28.7324V28.7258C116.851 27.7458 116.311 26.915 115.123 26.2322C114.881 26.0578 114.491 25.8826 113.953 25.7075L112.726 25.3138C112.67 25.2962 112.559 25.266 112.392 25.2219C112.224 25.1784 112.044 25.1262 111.849 25.0644C111.653 25.0033 111.454 24.9466 111.249 24.8944C110.098 24.5794 109.41 24.3866 109.187 24.3168C108.593 24.1241 108.017 23.9054 107.46 23.6605C106.847 23.3808 106.364 23.0747 106.011 22.7421C105.292 22.0342 104.889 21.1775 104.803 20.1716H106.865C106.927 20.7454 107.347 21.3135 108.129 21.876C108.277 21.9988 108.583 22.1387 109.048 22.2962L109.995 22.6369L111.194 22.9518L112.364 23.2667C113.385 23.5647 114.027 23.7568 114.287 23.8443C114.825 24.0195 115.392 24.2557 115.986 24.553C116.6 24.8502 117.101 25.1829 117.491 25.55C118.401 26.3374 118.856 27.3873 118.856 28.6994V28.7328L116.739 28.7324ZM104.799 19.3794C104.898 18.1632 105.487 17.1497 106.568 16.3384C107.757 15.4466 109.41 15 111.528 15C113.869 15 115.893 15.5077 117.603 16.5224V18.5165C115.671 17.3796 113.664 16.8109 111.584 16.8109C110.079 16.8109 108.918 17.0905 108.101 17.6505C107.419 18.1172 107.022 18.6935 106.909 19.3794H104.799ZM130.42 33.6851H128.359V25.2611L120.779 15.3149H123.117C125.614 18.5392 128.113 21.7641 130.609 24.9878L130.42 25.2347V33.6851ZM129.936 22.7751L135.659 15.3149H138L131.126 24.3113L129.936 22.7751Z" fill="#5E605E"/>
<path fill-rule="evenodd" clip-rule="evenodd" d="M32.664 17.0278C31.262 14.9809 30.9245 14.5984 30.9958 14.6966C30.7517 14.3798 28.8682 11.9125 27.794 10.5939C25.4406 7.70421 23.4115 5.44398 23.011 5C22.8684 5 18.5099 10.2202 18.2061 10.5939C16.5187 12.6659 14.8464 14.8225 13.336 17.0278C9.58879 22.5 8.2382 30.3419 13.336 35.8993C15.1722 37.9023 18.2554 39.4009 20.9237 39.801C21.1356 39.8362 23.0425 39.9932 23.0425 40C23.7491 39.9878 24.3917 39.9127 25.0763 39.801C25.9783 39.6656 26.6341 39.4943 26.8597 39.4172C27.213 39.2953 27.5689 39.1606 27.9243 39.013C28.7316 38.6922 29.5238 38.2901 30.3004 37.8027L30.3072 37.7983L30.347 37.7739C31.2263 37.2249 32.0254 36.5961 32.664 35.8996C37.7618 30.3421 36.4112 22.5003 32.664 17.0281V17.0278ZM13.596 18.2117C16.5639 13.7774 19.5573 10.0036 23.0425 6.05591V26.4829C15.6037 27.31 17.5154 36.2716 21.6035 39.2188C10.357 36.5944 8.51461 26.5039 13.596 18.2117ZM23 27.2674C29.8126 28.5759 27.0133 36.4875 23.0425 39.9472C19.0718 36.4875 16.1874 28.5759 23 27.2674Z" fill="#F3F6F8"/>
<path fill-rule="evenodd" clip-rule="evenodd" d="M80.7927 33.6851H67V15.3149H80.3747V17.0735H69.0619C69.0619 22.0312 69.0619 26.9839 69.0619 31.927H80.7927V33.6851ZM69.8879 22.9514H78.3409V24.71H69.8879V22.9514ZM85.0564 33.6851H82.9109L91.6046 15.2103H93.5273L102.249 33.6851H100.076L97.6512 28.6203H88.2732L89.0631 26.9146H96.9824L92.5523 17.6505L85.0564 33.6851ZM111.612 34C110.2 34 108.848 33.8205 107.558 33.462C106.266 33.1031 105.212 32.635 104.395 32.0581V29.88C105.175 30.5098 106.187 31.0522 107.432 31.507C108.769 31.9617 110.116 32.1891 111.473 32.1891C113.014 32.1891 114.278 31.8741 115.262 31.2443C115.983 30.7832 116.44 30.2101 116.632 29.5241H118.792C118.589 30.7826 117.906 31.8017 116.739 32.5828C115.346 33.5276 113.636 34 111.612 34ZM116.739 28.7324V28.7258C116.851 27.7458 116.311 26.915 115.123 26.2322C114.881 26.0578 114.491 25.8826 113.953 25.7075L112.726 25.3138C112.67 25.2962 112.559 25.266 112.392 25.2219C112.224 25.1784 112.044 25.1262 111.849 25.0644C111.653 25.0033 111.454 24.9466 111.249 24.8944C110.098 24.5794 109.41 24.3866 109.187 24.3168C108.593 24.1241 108.017 23.9054 107.46 23.6605C106.847 23.3808 106.364 23.0747 106.011 22.7421C105.292 22.0342 104.889 21.1775 104.803 20.1716H106.865C106.927 20.7454 107.347 21.3135 108.129 21.876C108.277 21.9988 108.583 22.1387 109.048 22.2962L109.995 22.6369L111.194 22.9518L112.364 23.2667C113.385 23.5647 114.027 23.7568 114.287 23.8443C114.825 24.0195 115.392 24.2557 115.986 24.553C116.6 24.8502 117.101 25.1829 117.491 25.55C118.401 26.3374 118.856 27.3873 118.856 28.6994V28.7328L116.739 28.7324ZM104.799 19.3794C104.898 18.1632 105.487 17.1497 106.568 16.3384C107.757 15.4466 109.41 15 111.528 15C113.869 15 115.893 15.5077 117.603 16.5224V18.5165C115.671 17.3796 113.664 16.8109 111.584 16.8109C110.079 16.8109 108.918 17.0905 108.101 17.6505C107.419 18.1172 107.022 18.6935 106.909 19.3794H104.799ZM130.42 33.6851H128.359V25.2611L120.779 15.3149H123.117C125.614 18.5392 128.113 21.7641 130.609 24.9878L130.42 25.2347V33.6851ZM129.936 22.7751L135.659 15.3149H138L131.126 24.3113L129.936 22.7751Z" fill="#B0B1B2"/>
</svg>
