<svg width="365" height="118" viewBox="0 0 365 118" fill="none" xmlns="http://www.w3.org/2000/svg">
<path fill-rule="evenodd" clip-rule="evenodd" d="M215.587 39.1578C209.401 31.6833 201.708 25.241 193.865 19.5801C185.966 13.8779 176.326 7.35234 167.013 4C157.946 7.53564 149.403 12.8155 141.56 18.477C133.661 24.1786 124.436 31.2721 118.35 39.0355C118.475 41.0917 118.683 43.1426 118.96 45.1838L119.555 49.5714H18.0665C13.5791 49.5714 9.13474 53.4282 8.32009 57.7847L4.12923 80.2063C3.42088 83.9937 5.67639 87.0055 9.62259 87.0055H131.828L132.912 89.12C134.092 91.424 135.388 93.6988 136.848 95.8471C146.275 98.2817 156.31 99 166.004 99C175.768 99 187.427 98.6493 196.944 95.9232C198.364 93.7128 199.67 91.4302 200.88 89.1003L201.969 87.0055H346.933C351.419 87.0055 355.866 83.1468 356.68 78.7929L360.871 56.3714C361.579 52.5833 359.324 49.5714 355.377 49.5714H214.447L215.048 45.1795C215.321 43.1864 215.517 41.1718 215.587 39.1578Z" fill="#B0B1B2"/>
<path fill-rule="evenodd" clip-rule="evenodd" d="M166.94 0C176.778 3.26465 187.397 10.3438 196.163 16.7298C204.927 23.1154 213.154 30.246 219.531 38.3156C219.517 40.8699 219.299 43.5405 218.928 46.2696H355.476C361.777 46.2696 365.974 51.4409 364.805 57.7578L360.611 80.3996C359.441 86.716 353.326 91.8877 347.027 91.8877H204.354C202.847 94.8146 201.216 97.6344 199.443 100.311C189.57 103.469 176.829 104 165.995 104C155.161 104 144.325 103.081 134.437 100.311C132.621 97.7759 130.95 94.9211 129.41 91.8877H9.52431C3.22528 91.8877 -0.974518 86.7184 0.19572 80.3996L4.38911 57.7578C5.55922 51.4392 11.6719 46.2696 17.9731 46.2696H115.061C114.703 43.6035 114.458 40.9488 114.349 38.3156C120.485 29.9415 130.481 22.0018 139.246 15.6161C148.011 9.23002 157.316 3.58776 166.94 0ZM215.606 39.6619C209.416 32.1138 201.719 25.6086 193.872 19.8917C185.968 14.1339 176.322 7.54396 167.005 4.15869C157.933 7.7292 149.384 13.0608 141.536 18.7778C133.633 24.5357 124.403 31.6985 118.313 39.5382C118.438 41.6144 118.647 43.6858 118.924 45.7471L119.52 50.1778H17.9731C13.4833 50.1778 9.03578 54.0724 8.22094 58.4714L4.02757 81.1134C3.31923 84.9381 5.57545 87.9794 9.52431 87.9794H131.8L132.883 90.1147C134.065 92.4417 135.361 94.7385 136.822 96.9078C146.254 99.3665 156.295 100.092 165.995 100.092C175.764 100.092 187.43 99.7378 196.952 96.9848C198.373 94.7527 199.68 92.4475 200.891 90.0951L201.98 87.9794H347.027C351.515 87.9794 355.965 84.083 356.779 79.6861L360.973 57.0442C361.681 53.2191 359.425 50.1778 355.476 50.1778H214.465L215.067 45.7426C215.34 43.7299 215.536 41.6955 215.606 39.6619Z" fill="#F3F6F8"/>
<path fill-rule="evenodd" clip-rule="evenodd" d="M142.807 89.063C150.703 90.9752 158.877 91.9633 167.104 91.9997C175.157 92.0179 183.523 91.2301 191.538 89.3822L192.183 89.2336L192.53 88.6723C196.881 81.6358 200.138 74.0658 202.644 66.4515C205.19 58.7538 206.269 50.8952 206.97 42.791L207 42.1804L206.619 41.6554C201.401 35.4766 195.391 30.3533 188.862 25.5782C182.316 20.8042 175.581 16.8698 168.03 13.6824L167.129 13.4061L166.506 13C159.176 16.0051 152.048 19.9786 145.315 24.8101C138.817 29.4732 132.854 34.8856 127.58 40.8952L127 43.2682C127.705 51.0739 129.261 58.8241 131.649 66.3222C134.055 73.7775 137.38 80.9758 141.813 88.3283L142.239 88.925L142.807 89.063Z" fill="#F3F6F8"/>
<path d="M195.139 83.4875C198.181 77.9703 200.736 72.185 202.75 66.2203C205.207 58.8464 206.76 51.1464 207.495 42.6779L207.499 42.1585L207.238 41.8611C201.888 35.767 195.758 30.2545 189.018 25.4761C182.411 20.814 175.161 16.8575 167.47 13.7164C167.47 13.7164 167.47 13.7164 167.47 13.7164L167.038 13.5397L166.604 13.7154C166.604 13.7154 166.604 13.7155 166.604 13.7155C158.837 16.8648 151.556 20.8341 144.964 25.5107L144.964 25.5111C138.292 30.2317 132.17 35.7238 126.771 41.8342L126.5 42.1648V42.611C127.153 50.6604 128.879 58.6381 131.428 66.3253C133.964 73.939 137.433 81.3075 141.739 88.2273L141.989 88.6009L142.656 88.7677C142.658 88.768 142.659 88.7683 142.66 88.7686C150.47 90.5808 158.695 91.5 167.106 91.5C173.725 91.5 180.347 90.8938 186.857 89.7002H163.23C162.659 89.7002 162.172 89.2459 162.172 88.6568C162.172 88.0675 162.659 87.6137 163.23 87.6137H174.986L145.747 84.0776L195.139 83.4875ZM195.139 83.4875L204.821 55.5655L204.822 55.565C205.014 55.008 204.703 54.4204 204.158 54.2389C203.611 54.0553 203.009 54.3409 202.82 54.8901C202.82 54.8902 202.82 54.8902 202.82 54.8903L195.687 75.4574L198.392 59.3923L198.392 59.3917C198.497 58.765 198.062 58.1922 197.447 58.0939C196.834 57.9926 196.238 58.4008 196.133 59.0217L196.133 59.0222L193.772 73.0451V43.3956C193.772 42.5868 193.103 41.9531 192.305 41.9531C191.506 41.9531 190.837 42.5868 190.837 43.3956V73.9617L184.544 37.5657M195.139 83.4875L188.999 75.7484M178.138 85.893L146.008 82.0072C145.43 81.9268 144.898 82.3406 144.825 82.9123C144.751 83.4964 145.176 84.0091 145.746 84.0775L178.138 85.893ZM178.138 85.893L151.584 78.5135L151.584 78.5134C150.983 78.3461 150.616 77.7263 150.795 77.1146L151.275 77.255L150.795 77.1146C150.972 76.51 151.608 76.1748 152.206 76.3412L174.314 82.4849L139.158 67.3475C138.42 67.0301 138.071 66.1779 138.406 65.4395C138.738 64.707 139.603 64.3892 140.336 64.7052L170.869 77.8524L151.372 66.934L151.372 66.9336C150.866 66.6495 150.682 66.0087 150.981 65.5018C151.275 65.0023 151.919 64.8408 152.417 65.1189L152.417 65.1192L180.224 80.6918L135.394 45.7972L135.394 45.797C134.897 45.4096 134.811 44.693 135.214 44.2023C135.61 43.7197 136.325 43.6449 136.814 44.0263L177.516 75.7078L168.346 66.7687L168.345 66.7684C167.927 66.3601 167.926 65.6921 168.346 65.2836L168.346 65.2835C168.758 64.8829 169.421 64.8824 169.833 65.2839L169.833 65.284L179.168 74.3844L152.407 40.7283L152.407 40.728C151.904 40.0942 152.026 39.1824 152.67 38.6962L178.138 85.893ZM185.167 77.2432L154.72 38.9518L154.72 38.9517C154.222 38.3257 153.307 38.215 152.67 38.6958L185.167 77.2432ZM185.167 77.2432L168.067 43.9046L168.067 43.9038C167.778 43.3375 168.019 42.6587 168.582 42.3839L168.583 42.3834C169.138 42.1145 169.824 42.3262 170.111 42.8866C170.111 42.8867 170.112 42.8868 170.112 42.8869L186.363 74.5725L169.169 24.3746L169.169 24.3744C168.978 23.8165 169.292 23.2276 169.841 23.0498L185.167 77.2432ZM188.999 75.7484L171.174 23.7071L171.173 23.7064C170.984 23.1559 170.384 22.8732 169.841 23.0498L188.999 75.7484ZM188.999 75.7484L182.459 37.9166C182.459 37.9166 182.459 37.9165 182.459 37.9165C182.358 37.3351 182.761 36.8045 183.328 36.7115L183.328 36.7115C183.895 36.6184 184.445 36.99 184.544 37.5657M184.544 37.5657L184.052 37.6507M184.544 37.5657L184.544 37.5655L184.052 37.6507M184.052 37.6507C184.001 37.3552 183.715 37.1547 183.409 37.2049L184.052 37.6507Z" fill="#B0B1B2" stroke="#F3F6F8"/>
<path fill-rule="evenodd" clip-rule="evenodd" d="M39.541 78.0385C36.9892 78.5422 34.4003 78.84 31.8259 78.84C30.903 78.84 29.9807 78.8023 29.0674 78.7119C28.0921 78.6154 27.1245 78.4116 26.1871 78.1605C25.2348 77.9051 24.2969 77.5386 23.4825 76.9993C22.6856 76.4709 22.0837 75.7423 21.6344 74.902C21.1148 73.9299 20.9483 72.8392 21.0134 71.7175L21.6111 61.4117C21.9758 55.1242 28.2154 54 33.2668 54C35.7144 54 38.3461 54.3985 40.7336 54.8L41.0028 54.8452L40.7176 59.7607L40.3236 59.6666C38.003 59.1139 35.4919 58.6628 33.0685 58.6628C32.4125 58.6628 31.7418 58.6738 31.085 58.7339C30.5522 58.7829 30.0226 58.9085 29.5095 59.0795C29.0562 59.2304 28.6473 59.4752 28.363 59.8725C28.0567 60.2999 27.9439 60.8376 27.9148 61.3397L27.3359 71.3195C27.1818 73.977 30.7514 74.1773 32.6757 74.1773C34.9129 74.1773 37.4867 73.6482 39.6872 73.1374L40.0921 73.0433L39.8054 77.9862L39.541 78.0385ZM53.4955 64.2315L52.6691 78.4785H46.7317L47.5581 64.2315H42.1257L42.3521 60.328H59.1177L58.8913 64.2315H53.4955ZM71.484 77.5461C71.1247 77.893 70.7036 78.1666 70.2206 78.3631C69.1185 78.8106 67.2396 78.84 66.0845 78.84C64.6309 78.84 62.2883 78.7232 61.2224 77.6675C60.1544 76.6104 60.1531 74.348 60.2364 72.9109C60.3222 71.4318 60.6262 69.4748 61.7891 68.3617C62.9496 67.2503 64.8933 67.0537 66.3696 67.0537H71.9837L72.0341 66.1849C72.068 65.5998 72.0436 64.7082 71.5362 64.3344C70.9492 63.902 69.3392 63.8699 68.6186 63.8699C66.6004 63.8699 64.4905 64.0795 62.4727 64.3019L62.1097 64.3417L62.3403 60.3647L62.6284 60.3303C64.875 60.062 67.1422 59.9662 69.3881 59.9662C71.3982 59.9662 74.5341 60.0961 76.2252 61.1911C77.8278 62.2286 78.0807 64.3009 77.9756 66.1125L77.2584 78.4785H71.4299L71.484 77.5461ZM94.3106 64.2315H89.1301L88.6183 73.0553C88.5696 73.8956 88.4452 74.7858 88.1488 75.5919C87.9334 76.1778 87.6375 76.7863 87.2122 77.2598C86.8046 77.7136 86.28 78.0196 85.7164 78.2234C85.1473 78.4288 84.5617 78.5736 83.9673 78.6392C83.2767 78.7152 82.57 78.7317 81.88 78.7317C81.1285 78.7317 80.3479 78.6917 79.6183 78.5448L79.3599 78.4925L79.5868 74.5813L79.992 74.6952C80.33 74.7907 80.6963 74.8643 81.0542 74.8643C81.4948 74.8643 81.9606 74.7695 82.2411 74.3778C82.6019 73.8741 82.6998 72.7333 82.7336 72.1514L83.4195 60.328H100.438L99.3856 78.4785H93.4842L94.3106 64.2315ZM110.01 66.3667H113.017C114.885 66.3667 118.517 66.4196 120.126 67.3481C121.592 68.1935 121.822 70.0179 121.729 71.6091L121.62 73.4892C121.517 75.2683 120.686 76.6218 119.018 77.3981C117.074 78.3033 114.491 78.4785 112.423 78.4785H103.371L104.424 60.328H110.361L110.01 66.3667ZM239.236 62.4334L232.815 78.4785H227.826L223.055 62.2858L222.116 78.4785H216.287L217.686 54.3615H226.282L230.909 70.4632L237.334 54.3615H245.461L244.062 78.4785H238.306L239.236 62.4334ZM258.93 77.5461C258.571 77.893 258.149 78.1666 257.666 78.3631C256.564 78.8106 254.685 78.84 253.53 78.84C252.077 78.84 249.734 78.7232 248.668 77.6675C247.6 76.6104 247.599 74.348 247.682 72.9109C247.768 71.4318 248.072 69.4748 249.235 68.3617C250.395 67.2503 252.339 67.0537 253.815 67.0537H259.429L259.48 66.1849C259.514 65.5998 259.489 64.7082 258.982 64.3344C258.395 63.902 256.785 63.8699 256.064 63.8699C254.046 63.8699 251.936 64.0795 249.918 64.3019L249.555 64.3417L249.786 60.3647L250.074 60.3303C252.321 60.062 254.588 59.9662 256.834 59.9662C258.844 59.9662 261.98 60.0961 263.671 61.1911C265.273 62.2286 265.526 64.3009 265.421 66.1125L264.704 78.4785H258.875L258.93 77.5461ZM283.577 78.2195C281.582 78.6001 279.551 78.84 277.54 78.84C276.824 78.84 276.104 78.8359 275.391 78.8037C274.714 78.7729 274.032 78.6924 273.364 78.6022C272.673 78.5088 271.937 78.3402 271.333 78.006C270.798 77.7099 270.305 77.3423 269.853 76.9367C269.305 76.4452 268.959 75.8059 268.758 75.0941C268.523 74.2597 268.48 73.3545 268.531 72.4769L268.868 66.6552C268.915 65.8526 269.047 65.0321 269.33 64.2633C269.553 63.6537 269.843 63.0442 270.233 62.5139C270.615 61.993 271.118 61.5886 271.679 61.2754C272.19 60.9898 272.729 60.7293 273.281 60.5443C273.881 60.3433 274.54 60.2307 275.16 60.1503C275.785 60.0688 276.424 59.9996 277.051 59.9843C277.699 59.9688 278.349 59.9662 278.997 59.9662C280.755 59.9662 282.643 60.2868 284.345 60.6234L284.604 60.6747L284.364 64.8211L283.971 64.7293C282.259 64.3294 280.158 63.8699 278.372 63.8699C276.87 63.8699 275.023 64.147 274.916 66.0041L274.542 72.4406C274.42 74.5437 276.36 74.9004 278.095 74.9004C279.848 74.9004 281.953 74.4772 283.686 74.1121L284.083 74.0283L283.843 78.1686L283.577 78.2195ZM297.11 64.2315L296.283 78.4785H290.346L291.172 64.2315H285.74L285.966 60.328H302.732L302.506 64.2315H297.11ZM310.325 71.1381L310.252 72.4046C310.207 73.1779 310.395 73.854 311.043 74.2825C311.894 74.8455 313.764 74.9004 314.78 74.9004C316.718 74.9004 318.707 74.5885 320.616 74.1497L321.02 74.0568L320.786 78.0929L320.524 78.1461C318.211 78.6177 315.871 78.84 313.537 78.84C309.437 78.84 303.952 78.0352 304.253 72.8385L304.618 66.5465C304.735 64.5288 305.418 62.6288 307.23 61.4672C309.158 60.2317 311.806 59.9662 313.98 59.9662C316.009 59.9662 318.481 60.2136 320.13 61.3978C321.751 62.5627 322.075 64.6119 321.963 66.5465L321.697 71.1381H310.325ZM330.66 77.6928L330.178 86H324.241L325.73 60.328H331.377L331.32 61.3114C331.729 60.9204 332.237 60.6419 332.806 60.4537C334.08 60.0323 335.703 59.9662 337.012 59.9662C338.232 59.9662 339.561 60.0347 340.729 60.3381C341.575 60.5579 342.395 60.9399 342.954 61.6124C343.419 62.1712 343.742 62.8136 343.875 63.5418C344.029 64.381 344.016 65.3242 343.966 66.1849L343.633 71.9343C343.525 73.7861 343.106 76.2138 341.449 77.4347C339.839 78.621 337.396 78.84 335.519 78.84C334.351 78.84 332.862 78.7924 331.766 78.4262C331.302 78.2711 330.936 78.0218 330.66 77.6928ZM71.7781 70.5955H68.4821C68.0761 70.5955 66.8469 70.616 66.5108 70.9081C66.1865 71.1898 66.0936 72.4223 66.0716 72.8022C66.0513 73.1527 66.0034 74.3635 66.2973 74.6099C66.6238 74.8835 67.9564 74.9004 68.377 74.9004C68.8174 74.9004 69.2633 74.9013 69.7044 74.8828C70.0094 74.8705 70.3152 74.838 70.6189 74.7952C70.7611 74.7751 71.0551 74.7234 71.1746 74.6304C71.291 74.5395 71.383 74.4113 71.454 74.284C71.5542 74.1053 71.5885 73.8666 71.5998 73.67L71.7781 70.5955ZM109.78 70.3424L109.537 74.5388H112.398C112.975 74.5388 114.494 74.5158 114.995 74.1526C115.416 73.8475 115.519 73.1936 115.546 72.7301L115.592 71.9343C115.619 71.4789 115.575 70.8999 115.136 70.6685C114.567 70.3681 113.362 70.3424 112.714 70.3424H109.78ZM259.224 70.5955H255.928C255.522 70.5955 254.293 70.616 253.956 70.9081C253.632 71.1898 253.539 72.4223 253.517 72.8022C253.497 73.1527 253.449 74.3635 253.743 74.6099C254.069 74.8835 255.402 74.9004 255.823 74.9004C256.263 74.9004 256.709 74.9013 257.15 74.8828C257.455 74.8705 257.761 74.838 258.065 74.7952C258.207 74.7751 258.501 74.7234 258.62 74.6304C258.737 74.5395 258.829 74.4113 258.9 74.284C259 74.1053 259.034 73.8666 259.045 73.67L259.224 70.5955ZM316.225 67.4876L316.353 65.281C316.378 64.8438 316.235 64.5121 315.885 64.2665C315.378 63.9107 314.294 63.8699 313.681 63.8699C313.056 63.8699 311.809 63.9036 311.251 64.2665C310.872 64.5121 310.691 64.8438 310.665 65.281L310.537 67.4876H316.225ZM337.656 72.6214L338.031 66.1489C338.06 65.6562 338.08 64.5868 337.643 64.2616C337.141 63.8884 335.345 63.8699 334.722 63.8699C334.056 63.8699 332.553 63.9069 331.99 64.3694C331.493 64.7786 331.363 65.5657 331.329 66.1489L330.954 72.6214C330.922 73.1692 330.932 74.0708 331.379 74.4479C331.881 74.8718 333.476 74.9004 334.118 74.9004C334.805 74.9004 336.373 74.8686 336.975 74.4405C337.5 74.0666 337.623 73.1903 337.656 72.6214Z" fill="#F3F6F8"/>
<path fill-rule="evenodd" clip-rule="evenodd" d="M15.7165 110.121V116.617H14.5347V111.141H11.1822V116.617H10V110.121H15.7165ZM25.293 110.121C25.8533 110.121 26.3415 110.214 26.7571 110.399C27.1727 110.585 27.4912 110.851 27.7128 111.197C27.9343 111.544 28.0452 111.955 28.0452 112.431C28.0452 112.901 27.9343 113.312 27.7128 113.661C27.4912 114.011 27.1727 114.278 26.7571 114.464C26.3415 114.65 25.8533 114.742 25.293 114.742H23.8342V116.617H22.6333V110.121H25.293ZM25.2378 113.722C25.7612 113.722 26.1582 113.61 26.4293 113.387C26.6999 113.164 26.8356 112.846 26.8356 112.431C26.8356 112.017 26.6999 111.698 26.4293 111.475C26.1582 111.253 25.7612 111.141 25.2378 111.141H23.8342V113.722H25.2378ZM37.3632 116.71C36.7045 116.71 36.1103 116.566 35.581 116.278C35.0515 115.99 34.6358 115.591 34.3342 115.081C34.0323 114.57 33.8816 114 33.8816 113.369C33.8816 112.737 34.0323 112.167 34.3342 111.656C34.6358 111.146 35.0515 110.747 35.581 110.46C36.1103 110.172 36.7045 110.028 37.3632 110.028C38.0219 110.028 38.6162 110.172 39.1457 110.46C39.675 110.747 40.0906 111.144 40.3925 111.652C40.6941 112.159 40.8449 112.731 40.8449 113.369C40.8449 114.006 40.6941 114.578 40.3925 115.085C40.0906 115.593 39.675 115.99 39.1457 116.278C38.6162 116.566 38.0219 116.71 37.3632 116.71ZM37.3632 115.652C37.7942 115.652 38.1821 115.554 38.5268 115.359C38.8717 115.164 39.1427 114.892 39.3395 114.543C39.5366 114.193 39.6352 113.802 39.6352 113.369C39.6352 112.936 39.5366 112.544 39.3395 112.195C39.1427 111.845 38.8717 111.573 38.5268 111.378C38.1821 111.183 37.7942 111.086 37.3632 111.086C36.9321 111.086 36.5444 111.183 36.1996 111.378C35.8547 111.573 35.5842 111.845 35.3869 112.195C35.1897 112.544 35.0913 112.936 35.0913 113.369C35.0913 113.802 35.1897 114.193 35.3869 114.543C35.5842 114.892 35.8547 115.164 36.1996 115.359C36.5444 115.554 36.9321 115.652 37.3632 115.652ZM47.2815 110.121H48.4638V114.733L51.9362 110.121H53.0538V116.617H51.8715V112.014L48.3991 116.617H47.2815V110.121ZM63.3598 113.23C63.7479 113.353 64.0511 113.553 64.2694 113.828C64.4883 114.103 64.5973 114.427 64.5973 114.798C64.5973 115.188 64.4713 115.526 64.2188 115.814C63.9664 116.102 63.6293 116.323 63.2076 116.478C62.7858 116.632 62.3257 116.71 61.827 116.71C61.3959 116.71 60.9633 116.649 60.5292 116.529C60.0955 116.408 59.6935 116.227 59.3243 115.986L59.712 115.104C59.9953 115.296 60.3092 115.443 60.6541 115.545C60.9989 115.647 61.3407 115.698 61.6789 115.698C62.1656 115.698 62.5704 115.602 62.8936 115.41C63.2169 115.219 63.3783 114.956 63.3783 114.622C63.3783 114.337 63.2613 114.12 63.0274 113.972C62.7935 113.823 62.4703 113.749 62.0578 113.749H60.5524V112.803H61.9654C62.3226 112.803 62.6025 112.729 62.8058 112.58C63.0089 112.431 63.1105 112.23 63.1105 111.977C63.1105 111.673 62.9737 111.438 62.6996 111.272C62.4258 111.104 62.0763 111.021 61.6515 111.021C61.3619 111.021 61.0636 111.062 60.7557 111.146C60.4477 111.229 60.1585 111.352 59.8875 111.513L59.509 110.538C59.8414 110.359 60.1937 110.224 60.5663 110.135C60.9386 110.045 61.3097 110 61.6789 110C62.1595 110 62.601 110.074 63.0045 110.223C63.4078 110.371 63.7294 110.583 63.9695 110.858C64.2096 111.134 64.3299 111.457 64.3299 111.828C64.3299 112.15 64.2435 112.431 64.0711 112.673C63.8988 112.914 63.6617 113.1 63.3598 113.23ZM75.3101 113.239C75.7227 113.351 76.0365 113.541 76.2522 113.81C76.4676 114.079 76.5755 114.415 76.5755 114.817C76.5755 115.386 76.3658 115.828 75.9471 116.144C75.5286 116.46 74.9224 116.617 74.128 116.617H71.0619V110.121H73.9524C74.6792 110.121 75.2456 110.267 75.6519 110.557C76.0582 110.848 76.2615 111.26 76.2615 111.792C76.2615 112.132 76.1796 112.426 76.0164 112.673C75.8533 112.921 75.6178 113.11 75.3101 113.239ZM72.244 112.896H73.8507C74.2388 112.896 74.5343 112.819 74.7376 112.664C74.9405 112.509 75.0423 112.281 75.0423 111.978C75.0423 111.674 74.9405 111.444 74.7376 111.286C74.5343 111.128 74.2388 111.049 73.8507 111.049H72.244V112.896ZM74.0911 115.689C74.9405 115.689 75.3654 115.368 75.3654 114.724C75.3654 114.093 74.9405 113.778 74.0911 113.778H72.244V115.689H74.0911ZM86.0318 116.71C85.3731 116.71 84.7789 116.567 84.2496 116.279C83.72 115.991 83.3045 115.592 83.0029 115.081C82.701 114.571 82.5501 114 82.5501 113.369C82.5501 112.738 82.701 112.167 83.0029 111.657C83.3045 111.147 83.72 110.748 84.2496 110.46C84.7789 110.172 85.3731 110.029 86.0318 110.029C86.6905 110.029 87.2847 110.172 87.8144 110.46C88.3436 110.748 88.7591 111.145 89.0611 111.652C89.3626 112.16 89.5134 112.732 89.5134 113.369C89.5134 114.007 89.3626 114.579 89.0611 115.086C88.7591 115.593 88.3436 115.991 87.8144 116.279C87.2847 116.567 86.6905 116.71 86.0318 116.71ZM86.0318 115.652C86.4629 115.652 86.8506 115.555 87.1954 115.36C87.5403 115.165 87.8113 114.893 88.0081 114.543C88.2052 114.194 88.3038 113.803 88.3038 113.369C88.3038 112.936 88.2052 112.545 88.0081 112.195C87.8113 111.846 87.5403 111.574 87.1954 111.379C86.8506 111.184 86.4629 111.086 86.0318 111.086C85.6007 111.086 85.213 111.184 84.8682 111.379C84.5233 111.574 84.2527 111.846 84.0555 112.195C83.8584 112.545 83.7598 112.936 83.7598 113.369C83.7598 113.803 83.8584 114.194 84.0555 114.543C84.2527 114.893 84.5233 115.165 84.8682 115.36C85.213 115.555 85.6007 115.652 86.0318 115.652ZM102.35 115.597V118H101.242V116.617H96.2826V118H95.165L95.1746 115.597H95.4517C95.858 115.578 96.1429 115.276 96.3061 114.692C96.4693 114.107 96.5694 113.27 96.6061 112.181L96.68 110.121H101.418V115.597H102.35ZM97.6585 112.293C97.628 113.134 97.5603 113.835 97.4556 114.395C97.3508 114.955 97.1846 115.355 96.9568 115.597H100.236V111.142H97.7049L97.6585 112.293ZM111.548 116.71C110.895 116.71 110.306 116.567 109.78 116.279C109.253 115.991 108.841 115.593 108.542 115.086C108.243 114.579 108.094 114.007 108.094 113.369C108.094 112.732 108.245 112.16 108.546 111.652C108.848 111.145 109.262 110.748 109.789 110.46C110.315 110.172 110.905 110.029 111.557 110.029C112.087 110.029 112.57 110.121 113.007 110.307C113.445 110.492 113.814 110.762 114.116 111.114L113.34 111.847C112.872 111.34 112.296 111.086 111.613 111.086C111.169 111.086 110.772 111.184 110.421 111.379C110.07 111.574 109.796 111.844 109.6 112.191C109.402 112.537 109.304 112.93 109.304 113.369C109.304 113.809 109.402 114.202 109.6 114.548C109.796 114.895 110.07 115.165 110.421 115.36C110.772 115.555 111.169 115.652 111.613 115.652C112.296 115.652 112.872 115.396 113.34 114.882L114.116 115.625C113.814 115.977 113.443 116.246 113.003 116.432C112.562 116.617 112.078 116.71 111.548 116.71ZM125.022 111.142H122.879V116.617H121.688V111.142H119.555V110.121H125.022V111.142ZM135.411 113.239C135.824 113.351 136.138 113.541 136.353 113.81C136.569 114.079 136.677 114.415 136.677 114.817C136.677 115.386 136.467 115.828 136.048 116.144C135.63 116.46 135.024 116.617 134.229 116.617H131.163V110.121H134.054C134.78 110.121 135.347 110.267 135.753 110.557C136.159 110.848 136.363 111.26 136.363 111.792C136.363 112.132 136.281 112.426 136.118 112.673C135.955 112.921 135.719 113.11 135.411 113.239ZM132.345 112.896H133.952C134.34 112.896 134.635 112.819 134.839 112.664C135.042 112.509 135.143 112.281 135.143 111.978C135.143 111.674 135.042 111.444 134.839 111.286C134.635 111.128 134.34 111.049 133.952 111.049H132.345V112.896ZM134.192 115.689C135.042 115.689 135.467 115.368 135.467 114.724C135.467 114.093 135.042 113.778 134.192 113.778H132.345V115.689H134.192ZM147.989 115.606V116.617H143.141V110.121H147.86V111.133H144.341V112.822H147.463V113.815H144.341V115.606H147.989ZM160.17 110.121V116.617H158.97V113.833H155.627V116.617H154.426V110.121H155.627V112.803H158.97V110.121H160.17ZM172.822 110.121V116.617H171.622V113.833H168.279V116.617H167.078V110.121H168.279V112.803H171.622V110.121H172.822ZM182.722 116.71C182.063 116.71 181.469 116.567 180.94 116.279C180.41 115.991 179.995 115.592 179.693 115.081C179.391 114.571 179.241 114 179.241 113.369C179.241 112.738 179.391 112.167 179.693 111.657C179.995 111.147 180.41 110.748 180.94 110.46C181.469 110.172 182.063 110.029 182.722 110.029C183.381 110.029 183.975 110.172 184.505 110.46C185.034 110.748 185.45 111.145 185.752 111.652C186.053 112.16 186.204 112.732 186.204 113.369C186.204 114.007 186.053 114.579 185.752 115.086C185.45 115.593 185.034 115.991 184.505 116.279C183.975 116.567 183.381 116.71 182.722 116.71ZM182.722 115.652C183.153 115.652 183.541 115.555 183.886 115.36C184.231 115.165 184.502 114.893 184.698 114.543C184.896 114.194 184.994 113.803 184.994 113.369C184.994 112.936 184.896 112.545 184.698 112.195C184.502 111.846 184.231 111.574 183.886 111.379C183.541 111.184 183.153 111.086 182.722 111.086C182.291 111.086 181.903 111.184 181.559 111.379C181.214 111.574 180.943 111.846 180.746 112.195C180.549 112.545 180.45 112.936 180.45 113.369C180.45 113.803 180.549 114.194 180.746 114.543C180.943 114.893 181.214 115.165 181.559 115.36C181.903 115.555 182.291 115.652 182.722 115.652ZM197.48 115.606V116.617H192.631V110.121H197.35V111.133H193.832V112.822H196.953V113.815H193.832V115.606H197.48ZM219.653 116.71C218.994 116.71 218.4 116.567 217.871 116.279C217.341 115.991 216.925 115.592 216.624 115.081C216.322 114.571 216.171 114 216.171 113.369C216.171 112.738 216.322 112.167 216.624 111.657C216.925 111.147 217.341 110.748 217.871 110.46C218.4 110.172 218.994 110.029 219.653 110.029C220.311 110.029 220.906 110.172 221.435 110.46C221.965 110.748 222.38 111.145 222.682 111.652C222.984 112.16 223.134 112.732 223.134 113.369C223.134 114.007 222.984 114.579 222.682 115.086C222.38 115.593 221.965 115.991 221.435 116.279C220.906 116.567 220.311 116.71 219.653 116.71ZM219.653 115.652C220.084 115.652 220.472 115.555 220.816 115.36C221.161 115.165 221.432 114.893 221.629 114.543C221.826 114.194 221.925 113.803 221.925 113.369C221.925 112.936 221.826 112.545 221.629 112.195C221.432 111.846 221.161 111.574 220.816 111.379C220.472 111.184 220.084 111.086 219.653 111.086C219.222 111.086 218.834 111.184 218.489 111.379C218.144 111.574 217.874 111.846 217.676 112.195C217.479 112.545 217.381 112.936 217.381 113.369C217.381 113.803 217.479 114.194 217.676 114.543C217.874 114.893 218.144 115.165 218.489 115.36C218.834 115.555 219.222 115.652 219.653 115.652ZM229.571 110.121H234.605V111.114H230.753V112.711H232.665C233.441 112.711 234.03 112.873 234.434 113.198C234.837 113.523 235.038 113.991 235.038 114.604C235.038 115.247 234.817 115.743 234.373 116.093C233.93 116.443 233.299 116.617 232.48 116.617H229.571V110.121ZM232.416 115.689C232.877 115.689 233.228 115.6 233.468 115.42C233.708 115.241 233.829 114.981 233.829 114.641C233.829 113.973 233.358 113.639 232.416 113.639H230.753V115.689H232.416ZM245.538 112.321C246.314 112.321 246.91 112.495 247.325 112.845C247.741 113.195 247.949 113.713 247.949 114.4C247.949 115.123 247.723 115.674 247.27 116.051C246.818 116.429 246.173 116.617 245.335 116.617H242.565V111.142H240.671V110.121H243.747V112.321H245.538ZM245.289 115.689C245.757 115.689 246.116 115.581 246.365 115.365C246.614 115.148 246.739 114.832 246.739 114.418C246.739 113.632 246.256 113.239 245.289 113.239H243.747V115.689H245.289ZM259.114 115.606V116.617H254.265V110.121H258.984V111.133H255.466V112.822H258.587V113.815H255.466V115.606H259.114ZM271.96 115.596V118H270.852V116.617H265.892V118H264.775L264.784 115.596H265.062C265.468 115.578 265.753 115.276 265.916 114.692C266.079 114.107 266.179 113.27 266.216 112.181L266.29 110.121H271.027V115.596H271.96ZM267.268 112.293C267.238 113.134 267.17 113.835 267.065 114.395C266.961 114.955 266.794 115.355 266.567 115.596H269.845V111.142H267.315L267.268 112.293ZM278.193 110.121H279.376V114.733L282.848 110.121H283.966V116.617H282.783V112.014L279.311 116.617H278.193V110.121ZM296.617 110.121V116.617H295.417V113.833H292.074V116.617H290.873V110.121H292.074V112.803H295.417V110.121H296.617ZM308.374 115.606V116.617H303.525V110.121H308.244V111.133H304.726V112.821H307.847V113.815H304.726V115.606H308.374ZM320.555 110.121V116.617H319.354V113.833H316.011V116.617H314.81V110.121H316.011V112.803H319.354V110.121H320.555ZM327.472 110.121H328.654V114.733L332.126 110.121H333.244V116.617H332.062V112.014L328.589 116.617H327.472V110.121ZM345 115.606V116.617H340.151V110.121H344.87V111.133H341.352V112.821H344.473V113.815H341.352V115.606H345Z" fill="#B0B1B2"/>
</svg>
