<svg width="361" height="69" viewBox="0 0 361 69" fill="none" xmlns="http://www.w3.org/2000/svg">
<g clip-path="url(#clip0_1_297)">
<path d="M345.48 52.2703L344.504 47.7383H345.48L345.829 49.6905C345.898 50.1786 345.968 50.7364 346.038 51.2941C346.107 50.7364 346.177 50.2483 346.247 49.6905L346.526 47.7383H347.502L346.456 52.2703H345.48Z" fill="#B0B1B2"/>
<path d="M348.617 52.2703L347.641 47.7383H348.617L348.965 49.6905C349.035 50.1786 349.105 50.7364 349.174 51.2941C349.244 50.7364 349.314 50.2483 349.384 49.6905L349.663 47.7383H350.639L349.593 52.2703H348.617Z" fill="#B0B1B2"/>
<path d="M351.059 47.808C351.268 47.7383 351.617 47.7383 351.966 47.7383C352.523 47.7383 352.942 47.8777 353.221 48.1566C353.639 48.5052 353.778 49.1327 353.778 49.9694C353.778 50.8758 353.569 51.5033 353.151 51.8519C352.872 52.1308 352.384 52.2703 351.756 52.2703C351.478 52.2703 351.199 52.2703 351.059 52.2005V47.808ZM351.966 51.573C352.035 51.573 352.105 51.573 352.105 51.573C352.523 51.573 352.872 51.1547 352.872 49.8997C352.872 48.9933 352.663 48.4355 352.105 48.4355C352.035 48.4355 351.966 48.4355 351.896 48.4355V51.573H351.966Z" fill="#B0B1B2"/>
<path d="M354.617 52.2699C354.338 52.2699 354.129 52.0607 354.129 51.7121C354.129 51.3635 354.338 51.1543 354.617 51.1543C354.896 51.1543 355.105 51.3635 355.105 51.7121C355.175 52.0607 354.966 52.2699 354.617 52.2699Z" fill="#B0B1B2"/>
<path d="M355.727 51.3639C355.936 51.4336 356.215 51.573 356.493 51.573C356.912 51.573 357.121 51.3639 357.121 51.085C357.121 50.7364 356.912 50.5969 356.563 50.318C355.936 49.9694 355.727 49.4814 355.727 49.063C355.727 48.3658 356.215 47.7383 357.121 47.7383C357.4 47.7383 357.679 47.808 357.818 47.8777L357.679 48.6447C357.539 48.575 357.33 48.5052 357.121 48.5052C356.772 48.5052 356.563 48.7144 356.563 48.9933C356.563 49.2722 356.703 49.4116 357.191 49.6905C357.818 50.0391 358.027 50.5272 358.027 51.0153C358.027 51.8519 357.4 52.4097 356.563 52.4097C356.215 52.4097 355.866 52.34 355.727 52.2005V51.3639Z" fill="#B0B1B2"/>
<path d="M359.356 47.7383V50.6667C359.356 51.3639 359.565 51.5033 359.774 51.5033C360.053 51.5033 360.192 51.2942 360.192 50.6667V47.7383H361.099V50.5272C361.099 51.7125 360.68 52.34 359.774 52.34C358.798 52.34 358.449 51.7125 358.449 50.5272V47.7383H359.356Z" fill="#B0B1B2"/>
<path d="M348.47 26.5437H344.844C344.217 26.5437 343.729 27.0317 343.729 27.6592V34.771C342.892 32.9582 341.289 31.9123 339.197 31.9123H338.779V27.6592C338.779 27.0317 338.291 26.5437 337.663 26.5437H336.408C339.825 25.5676 340.382 21.942 340.382 19.6411V15.1789C340.382 8.97353 336.757 8.06714 334.595 8.06714C332.783 8.06714 330.691 8.62492 329.576 10.9258V9.67076C329.576 9.04326 329.088 8.55519 328.46 8.55519H323.998C323.44 8.55519 322.952 8.97353 322.882 9.46159L322.325 12.3202L321.767 9.46159C321.627 8.90381 321.209 8.55519 320.651 8.55519H316.189C315.841 8.55519 315.562 8.69464 315.353 8.90381C315.143 8.69464 314.864 8.55519 314.516 8.55519H310.96C310.333 8.55519 309.845 9.04326 309.845 9.67076V16.7128C309.008 14.9 307.474 13.9239 305.313 13.9239H304.894V9.67076C304.894 9.04326 304.406 8.55519 303.779 8.55519H300.223C299.944 8.55519 299.665 8.69464 299.456 8.83409V4.65072C299.456 4.02321 298.968 3.53516 298.341 3.53516H288.928C288.301 3.53516 287.813 4.02321 287.813 4.65072V14.5514C287.813 17.6192 287.673 18.8044 287.046 20.5475C286.488 20.6172 286 21.1053 286 21.6631V28.4959C286 29.1234 286.488 29.6115 287.116 29.6115H290.532C291.159 29.6115 291.647 29.1234 291.647 28.4959V26.3345H294.785V28.4959C294.785 29.1234 295.273 29.6115 295.9 29.6115H299.317C299.874 29.6115 300.363 29.1931 300.432 28.6354L302.942 35.5379L300.084 42.7891C299.944 43.1377 300.014 43.556 300.223 43.8349C300.432 44.1138 300.781 44.323 301.199 44.323H305.173C305.661 44.323 306.08 44.0441 306.219 43.6258C306.359 44.0441 306.777 44.323 307.265 44.323H311.03C311.378 44.323 311.727 44.1138 311.936 43.8349C312.076 43.6258 312.145 43.3469 312.145 43.1377C313.4 44.4624 315.074 44.7413 316.259 44.7413C318.281 44.7413 319.605 44.0441 320.442 42.9983V46.4844C320.442 46.5541 320.442 46.6936 320.512 46.7633H319.396C318.769 46.7633 318.281 47.2513 318.281 47.8788V48.2275C317.165 46.9027 315.562 46.3449 313.958 46.3449C312.424 46.3449 310.681 46.9027 309.566 48.3669V47.9486C309.566 47.3211 309.078 46.833 308.45 46.833H298.201C297.574 46.833 297.086 47.3211 297.086 47.9486V52.6897L295.9 50.4586C296.458 49.2036 296.807 47.5999 296.807 46.2055C296.807 45.578 296.319 45.0899 295.691 45.0899H294.436C294.855 44.323 295.133 43.4166 295.133 42.5799C295.133 40.1396 293.6 38.536 291.299 38.536C289.347 38.536 287.325 39.5818 287.325 42.5799C287.325 43.4166 287.534 44.323 287.952 45.2294C286.767 46.4147 286.209 47.8788 286.209 49.6916C286.209 53.5264 288.58 54.9208 290.741 54.9208C291.508 54.9208 292.275 54.7117 292.902 54.3631C293.112 54.5722 293.39 54.642 293.669 54.642H296.388C296.737 54.642 297.016 54.5025 297.225 54.2933V63.5665C297.225 64.194 297.713 64.682 298.341 64.682H302.454C302.942 64.682 303.361 64.4031 303.5 63.9848C303.639 64.4031 304.058 64.682 304.546 64.682H308.659C309.287 64.682 309.775 64.194 309.775 63.5665V63.0784C310.89 64.4729 312.564 65.1701 314.167 65.1701C317.026 65.1701 319.884 63.2179 319.884 58.9648V57.9189C320.512 58.4767 321.349 58.8253 322.394 58.8253C322.952 58.8253 323.51 58.7556 323.998 58.6859V63.5665C323.998 64.194 324.486 64.682 325.113 64.682H328.669C328.878 64.682 329.088 64.6123 329.227 64.5426C329.366 64.6123 329.576 64.682 329.785 64.682H333.341C333.829 64.682 334.247 64.3334 334.456 63.8454L334.944 62.3115V63.4967C334.944 64.1242 335.432 64.6123 336.06 64.6123H339.337C339.964 64.6123 340.452 64.1242 340.452 63.4967V47.8788C340.452 47.2513 339.964 46.7633 339.337 46.7633H335.85C335.362 46.7633 334.874 47.1119 334.735 47.5999L334.247 49.2036V47.9486C334.247 47.7394 334.177 47.5999 334.107 47.3908C334.386 47.1816 334.526 46.833 334.526 46.4844V44.323H339.406C340.801 44.323 342.892 43.9046 343.938 41.6038V43.2074C343.938 43.8349 344.426 44.323 345.054 44.323H348.679C349.307 44.323 349.795 43.8349 349.795 43.2074V27.6592C349.655 27.1015 349.097 26.5437 348.47 26.5437ZM313.888 57.8492V58.7556C313.888 58.9648 313.888 59.1042 313.888 59.1739C313.888 59.0345 313.888 58.895 313.888 58.7556V57.5006H313.958C313.958 57.64 313.888 57.7098 313.888 57.8492ZM315.422 25.9859C315.492 26.0556 315.562 26.1253 315.562 26.1253C315.422 26.1253 315.283 26.1253 315.143 26.1951C315.283 26.1253 315.353 26.1253 315.422 25.9859ZM310.402 32.5398C310.402 32.749 310.402 32.9582 310.402 33.2371V37.769C310.402 38.0479 310.402 38.3965 310.402 38.6754L309.287 35.6774L310.402 32.5398ZM327.484 37.9782V38.6754H327.345C327.345 38.3965 327.414 38.1874 327.484 37.9782ZM329.576 25.2189V23.8942C330.552 25.8464 332.155 26.5437 333.55 26.7528C333.41 26.8226 333.271 26.962 333.131 27.1015C332.922 26.8226 332.574 26.6134 332.155 26.6134H323.301C322.673 26.6134 322.185 27.1015 322.185 27.729V32.6793C322.185 34.4223 322.115 35.5379 321.976 36.514V33.3068C321.976 28.6354 319.954 26.962 318.002 26.4042H319.536C319.954 26.4042 320.372 26.1253 320.582 25.7767C320.791 26.1253 321.139 26.4042 321.627 26.4042H323.231C323.649 26.4042 324.068 26.1951 324.207 25.7767C324.416 26.1253 324.765 26.4042 325.183 26.4042H328.46C329.088 26.4042 329.576 25.8464 329.576 25.2189ZM293.53 9.32215V20.6172H292.833C293.251 19.1531 293.39 17.6889 293.39 15.6669V9.32215H293.53ZM300.432 26.962V26.4042H305.313C306.707 26.4042 308.799 25.9859 309.845 23.685V25.2887C309.845 25.9162 310.333 26.4042 310.96 26.4042H314.307C313.47 26.6134 312.703 27.0317 312.006 27.729C312.006 27.5198 311.936 27.2409 311.797 27.0317C311.588 26.7528 311.239 26.5437 310.89 26.5437H307.125C306.637 26.5437 306.219 26.8226 306.08 27.2409C305.94 26.8226 305.522 26.5437 305.034 26.5437H301.269C300.92 26.5437 300.641 26.7528 300.432 26.962ZM326.02 46.9027C326.02 46.833 326.09 46.6936 326.09 46.6238V44.4624H328.669V46.6238C328.669 46.7633 328.669 46.833 328.739 46.9725C328.669 46.9725 328.53 46.9027 328.46 46.9027H326.02Z" fill="#F3F6F8"/>
<path d="M296.111 53.5975H293.391L292.973 52.7608C292.346 53.5278 291.37 53.9461 290.463 53.9461C288.65 53.9461 287.047 52.8306 287.047 49.8325C287.047 47.7408 287.953 46.4858 289.069 45.5794C288.441 44.5335 288.162 43.4877 288.162 42.651C288.162 40.2804 289.696 39.7227 291.021 39.7227C292.834 39.7227 293.74 40.9079 293.74 42.5813C293.74 43.906 292.973 45.3005 291.997 45.9977L293.182 48.1591C293.322 47.7408 293.391 47.3225 293.391 46.9041C293.391 46.5555 293.391 46.4161 293.391 46.3463H295.483C295.483 47.8802 295.065 49.4839 294.437 50.5994L296.111 53.5975ZM290.184 47.5316C289.696 48.2289 289.487 48.9261 289.487 49.4839C289.487 50.46 290.045 51.4361 290.812 51.4361C291.23 51.4361 291.648 51.1572 291.858 50.6692L290.184 47.5316ZM290.324 42.5813C290.324 42.9996 290.533 43.7666 290.882 44.3244C291.509 43.7666 291.718 43.2785 291.718 42.651C291.718 42.0235 291.439 41.7446 291.021 41.7446C290.463 41.7446 290.324 42.0932 290.324 42.5813Z" fill="#B0B1B2"/>
<path d="M308.385 48.0181V63.636H304.272V51.2253H302.18V63.636H298.066V48.0181H308.385Z" fill="#B0B1B2"/>
<path d="M312.774 56.3847V58.7553C312.774 60.0103 313.053 60.7772 313.959 60.7772C314.866 60.7772 315.144 60.0103 315.144 58.7553V57.8489H318.561V58.9644C318.561 62.7295 316.19 64.0542 314.029 64.0542C311.868 64.0542 309.497 62.6597 309.497 58.9644V52.6197C309.497 48.9243 311.868 47.5996 314.029 47.5996C316.19 47.5996 318.561 48.9243 318.561 52.6894V56.3847H312.774ZM315.075 53.5261V52.9683C315.075 51.3646 314.796 50.7371 313.89 50.7371C313.053 50.7371 312.704 51.4344 312.704 52.9683V53.5261H315.075Z" fill="#B0B1B2"/>
<path d="M322.957 48.0181V52.8289C322.957 53.6656 323.305 54.2234 323.933 54.2234C324.281 54.2234 324.63 54.2234 324.909 54.0142V48.0181H328.465V63.636H324.909V57.2215C324.281 57.5004 323.445 57.7095 322.12 57.7095C320.377 57.7095 319.331 56.3848 319.331 54.2931V48.0181H322.957Z" fill="#B0B1B2"/>
<path d="M332.929 48.018V54.8508L332.581 57.9883V58.058L335.648 47.9482H339.135V63.5661H335.858V56.7333L336.276 53.5261V53.4563L333.208 63.5661H329.653V47.9482H332.929V48.018Z" fill="#B0B1B2"/>
<path d="M298.272 4.65039H288.86V14.551C288.86 18.0372 288.651 19.2922 287.814 21.7325H287.117V28.5653H290.534V25.2883H295.972V28.5653H299.388V21.7325H298.272V4.65039ZM294.717 21.7325H291.231C291.998 19.85 292.277 18.1069 292.277 15.5969V8.13653H294.717V21.7325Z" fill="#B0B1B2"/>
<path d="M314.517 9.67188H310.961V25.2898H314.517V9.67188Z" fill="#B0B1B2"/>
<path d="M305.312 15.0399H303.778V9.60156H300.223V25.2195H305.382C308.101 25.2195 309.426 23.4764 309.426 20.06C309.356 16.9922 307.962 15.0399 305.312 15.0399ZM304.336 22.0122H303.778V18.3169H304.406C305.382 18.3169 305.87 18.9444 305.87 20.1994C305.87 21.4544 305.382 22.0122 304.336 22.0122Z" fill="#B0B1B2"/>
<path d="M322.815 15.8766C322.675 16.5738 322.536 18.8747 322.397 20.548H322.327C322.257 18.9444 321.978 16.5738 321.909 15.8766L320.654 9.60156H316.191V25.2195H319.468V18.2472C319.468 17.9683 319.259 15.3188 319.12 13.0877L321.49 25.1497H323.094L325.604 13.0877C325.395 15.0399 325.116 17.6894 325.116 18.1775V25.2195H328.393V9.67129H323.93L322.815 15.8766Z" fill="#B0B1B2"/>
<path d="M334.601 9.25391C331.882 9.25391 329.93 10.7181 329.93 15.1803V19.7123C329.93 24.1746 331.882 25.7085 334.601 25.7085C337.32 25.7085 339.203 24.1746 339.203 19.7123V15.2501C339.203 10.7181 337.25 9.25391 334.601 9.25391ZM335.647 20.7582C335.647 21.804 335.228 22.2921 334.601 22.2921C333.973 22.2921 333.485 21.7343 333.485 20.6187V14.2739C333.485 13.2281 333.834 12.6703 334.601 12.6703C335.228 12.6703 335.647 13.1584 335.647 14.2739V20.7582Z" fill="#B0B1B2"/>
<path d="M305.037 27.7307L306.082 32.1232L307.198 27.7307H310.963L308.104 35.6094L310.963 43.2789H307.198L306.082 38.6772L305.037 43.2789H301.063L304.061 35.6094L301.202 27.7307H305.037Z" fill="#B0B1B2"/>
<path d="M320.864 33.2383V37.7006C320.864 42.1629 318.911 43.6968 316.262 43.6968C313.543 43.6968 311.591 42.1629 311.591 37.7006V33.1686C311.591 28.7064 313.543 27.2422 316.262 27.2422C318.911 27.3119 320.864 28.7761 320.864 33.2383ZM315.147 32.332V38.6767C315.147 39.7923 315.565 40.3501 316.262 40.3501C316.89 40.3501 317.308 39.7923 317.308 38.8162V32.332C317.308 31.2164 316.959 30.7283 316.262 30.7283C315.495 30.7283 315.147 31.3558 315.147 32.332Z" fill="#B0B1B2"/>
<path d="M323.301 32.6105V27.6602H332.156V39.7919H333.201V46.6247H329.785V43.2781H324.905V46.555H321.488V39.7919H322.185C323.092 37.4213 323.301 36.1663 323.301 32.6105ZM326.717 31.216V33.6563C326.717 36.0966 326.508 37.8397 325.672 39.7919H328.6V31.216H326.717Z" fill="#B0B1B2"/>
<path d="M337.673 33.0972H339.207C341.856 33.0972 343.251 35.0494 343.251 38.1172C343.251 41.5336 341.926 43.2767 339.207 43.2767H334.117V27.7285H337.673V33.0972ZM337.673 40.0695H338.231C339.276 40.0695 339.765 39.5117 339.765 38.3264C339.765 37.0017 339.277 36.4439 338.3 36.4439H337.673V40.0695ZM348.48 43.2767H344.854V27.7285H348.48V43.2767Z" fill="#B0B1B2"/>
<path d="M258.082 4.86011C256.966 4.86011 256.13 5.20873 255.432 6.0454C254.735 6.74263 254.317 7.64902 254.317 8.55542C254.317 9.67098 254.665 10.6471 255.432 11.3443C256.13 12.0416 257.036 12.4599 258.082 12.4599C259.128 12.4599 260.034 12.1113 260.731 11.3443C261.428 10.6471 261.847 9.67098 261.847 8.55542C261.847 7.5793 261.498 6.74263 260.731 6.0454C260.034 5.20873 259.128 4.86011 258.082 4.86011ZM262.683 8.62514C262.683 9.94988 262.195 11.0654 261.359 12.0416C260.383 12.8782 259.337 13.3663 258.082 13.3663C256.757 13.3663 255.642 12.8782 254.805 11.9021C253.968 11.0654 253.48 9.94988 253.48 8.62514C253.48 7.30041 253.968 6.25457 254.944 5.34817C255.781 4.5115 256.897 4.02344 258.082 4.02344C259.267 4.02344 260.383 4.5115 261.359 5.34817C262.195 6.32429 262.683 7.43986 262.683 8.62514ZM258.918 7.64902C258.918 7.37013 258.779 7.30041 258.43 7.16096C258.291 7.02152 258.082 7.02152 257.733 7.02152H257.385V8.48569H258.012C258.57 8.48569 258.918 8.27653 258.918 7.64902ZM257.385 11.2746H256.06V6.11512C256.757 6.11512 258.361 6.11512 258.64 6.11512C258.988 6.25457 259.337 6.25457 259.616 6.46373C260.104 6.6729 260.313 7.09124 260.313 7.64902C260.313 8.4857 259.755 8.83431 258.988 8.83431C259.337 8.97375 259.616 9.04348 259.755 9.18292C260.104 9.46181 260.243 9.81043 260.243 10.2985V10.7865C260.243 10.926 260.243 10.926 260.243 11.0654L260.383 11.2746H259.058C259.058 10.926 259.058 10.0893 258.918 9.94987C258.779 9.7407 258.709 9.60126 258.57 9.46181C258.43 9.46181 258.361 9.46181 258.082 9.46181H257.873H257.524V11.2746H257.385Z" fill="#B0B1B2"/>
<path d="M222.458 -0.228516H114.39V4.65208H222.458C238.912 4.65208 252.299 18.0389 252.299 34.4934C252.299 50.948 238.912 64.3348 222.458 64.3348H114.39V69.2154H222.458C241.631 69.2154 257.179 53.6672 257.179 34.4934C257.109 15.3197 241.561 -0.228516 222.458 -0.228516Z" fill="#B0B1B2"/>
<path d="M168.98 52.0632L171.629 56.4557L198.541 13.8551H193.382L168.98 52.0632Z" fill="#B0B1B2"/>
<path d="M166.121 47.1826L168.283 50.9476L191.988 13.8551H187.386L166.121 47.1826Z" fill="#B0B1B2"/>
<path d="M163.054 42.3717L165.216 45.9276L185.644 13.8551H181.321L163.054 42.3717Z" fill="#B0B1B2"/>
<path d="M159.985 37.4911L162.077 40.8378L179.367 13.8551H175.254L159.985 37.4911Z" fill="#B0B1B2"/>
<path d="M157.199 32.75L169.191 13.8551H173.095L159.012 35.8178L157.199 32.75Z" fill="#B0B1B2"/>
<path d="M154.132 27.8694L163.056 13.8551H166.891L155.945 30.7977L154.132 27.8694Z" fill="#B0B1B2"/>
<path d="M156.989 13.8551H160.475L152.806 25.7777L151.133 22.9888L156.989 13.8551Z" fill="#B0B1B2"/>
<path d="M150.925 13.8551H154.202L149.74 20.7577L148.136 18.1779L150.925 13.8551Z" fill="#B0B1B2"/>
<path d="M145.418 13.8551L146.673 15.6679L147.788 13.8551H145.418Z" fill="#B0B1B2"/>
<path d="M112.926 54.2943L114.181 56.5254L141.163 13.8551H138.863L112.926 54.2943Z" fill="#B0B1B2"/>
<path d="M109.997 49.344L111.112 51.366L135.236 13.8551H132.726L109.997 49.344Z" fill="#B0B1B2"/>
<path d="M107 44.6028L108.046 46.4854L128.892 13.8551H126.661L107 44.6028Z" fill="#B0B1B2"/>
<path d="M104 39.792L104.976 41.3956L122.616 13.8551H120.594L104 39.792Z" fill="#B0B1B2"/>
<path d="M114.67 13.8551H116.343L101.841 36.2361L101.074 34.9811L114.67 13.8551Z" fill="#B0B1B2"/>
<path d="M98.0744 30.1005L98.7716 31.2858L109.997 13.8551H108.602L98.0744 30.1005Z" fill="#B0B1B2"/>
<path d="M95.1443 25.2199L95.7021 26.2658L103.72 13.8551H102.465L95.1443 25.2199Z" fill="#B0B1B2"/>
<path d="M96.3315 13.8551H97.3076L92.6362 21.176L92.1482 20.4788L96.3315 13.8551Z" fill="#B0B1B2"/>
<path d="M88.0349 13.8551L89.4991 16.1559L91.0329 13.8551H88.0349Z" fill="#B0B1B2"/>
<path d="M202.028 56.5954V12.5306L222.107 12.3911C241.211 12.3911 246.3 26.4751 246.3 34.8419V34.9116C246.022 40.9077 244.348 45.7883 241.281 49.3442C237.097 54.2248 230.334 56.6651 221.201 56.6651L202.028 56.5954Z" fill="#B0B1B2"/>
<path d="M203.215 13.785V55.4095L221.203 55.4793C240.864 55.4793 244.629 43.9053 245.047 34.8413C245.047 27.1021 240.515 13.5062 221.83 13.6456L203.215 13.785Z" fill="#B0B1B2"/>
<path d="M204.469 54.1547V14.9705L222.108 14.8311C243.234 14.8311 243.861 32.6104 243.861 34.8415C243.303 47.8797 235.913 54.2244 221.272 54.2244L204.469 54.1547Z" fill="#B0B1B2"/>
<path d="M237.52 22.6401C238.496 22.5007 239.193 22.3612 239.542 22.0824C236.474 18.1082 231.175 14.8312 222.042 14.8312L204.402 14.9706V39.0947C212.769 21.7337 235.638 22.919 237.52 22.6401Z" fill="#B0B1B2"/>
<path d="M237.52 22.6401C238.496 22.5007 239.193 22.3612 239.542 22.0824C236.474 18.1082 231.175 14.8312 222.042 14.8312L204.402 14.9706V39.0947C212.769 21.7337 235.638 22.919 237.52 22.6401Z" fill="#B0B1B2"/>
<path d="M39.116 50.7459C38.7674 50.9551 38.628 51.3734 38.7674 51.8615C38.7674 52.2101 38.9068 52.2798 39.2554 52.2798C39.7435 52.2798 39.9527 51.9312 39.9527 51.3037V50.1881C39.8829 50.3276 39.7435 50.3275 39.116 50.7459Z" fill="#B0B1B2"/>
<path d="M54.6611 50.5371H54.3125V52.2104H54.6611C55.2886 52.2104 55.6372 51.8618 55.4977 51.0949C55.3583 50.7463 55.1491 50.5371 54.6611 50.5371Z" fill="#B0B1B2"/>
<path d="M24.4736 44.0535C24.125 44.2627 24.0553 44.4719 24.0553 44.9599C24.0553 45.3783 24.1948 45.5874 24.6131 45.5874C25.1011 45.5874 25.3103 45.2388 25.3103 44.6113V43.4957C25.2406 43.4957 25.1011 43.6352 24.892 43.7049L24.4736 44.0535Z" fill="#B0B1B2"/>
<path d="M18.897 41.6094C18.4787 41.6094 18.2695 41.958 18.2695 42.3763V44.8166C18.2695 45.3744 18.4787 45.5836 18.897 45.5836C19.2456 45.5836 19.4548 45.3744 19.4548 44.9561V42.446C19.4548 41.8185 19.3153 41.6094 18.897 41.6094Z" fill="#B0B1B2"/>
<path d="M4.74291 49.768C4.74291 50.3955 4.67319 50.8836 4.32458 51.4413H5.37041V49.0708H4.74291V49.768Z" fill="#B0B1B2"/>
<path d="M59.9598 45.5868H57.9379C57.3104 45.5868 56.7527 46.1446 56.7527 46.7721V48.306C56.404 48.1666 55.9857 48.0271 55.5674 48.0271C55.5674 47.3996 55.5674 46.7721 55.5674 46.7721C55.5674 46.1446 55.0096 45.5868 54.3821 45.5868H52.3602C52.2905 45.5868 52.2208 45.5868 52.2208 45.5868C52.1511 45.5868 52.0813 45.5868 52.0813 45.5868H50.1292C49.92 45.5868 49.7805 45.6565 49.6411 45.7263C49.5017 45.6565 49.2925 45.5868 49.0833 45.5868H48.0375C48.2467 45.3776 48.3164 45.0988 48.3164 44.8199V40.009C48.3164 39.3815 47.7586 38.8237 47.1311 38.8237H45.667C45.4578 38.8237 45.2487 38.8934 45.1092 38.9631C44.9698 38.8934 44.7606 38.8237 44.5515 38.8237H43.2965C42.669 38.8237 42.1112 39.3815 42.1112 40.009V44.8199C42.1112 45.0988 42.2507 45.3776 42.3901 45.5868H41.8324C41.6232 45.5868 41.414 45.6565 41.2746 45.7263C41.1351 45.6565 40.926 45.5868 40.7168 45.5868V40.0787C40.7168 39.3815 40.159 38.8934 39.5316 38.8934H37.5097C37.2308 38.8934 36.9519 39.0329 36.7427 39.1723C36.5336 38.9631 36.2547 38.8934 35.9758 38.8934H34.163C34.0236 38.8934 33.8842 38.8934 33.8144 38.9631C33.675 38.8934 33.6053 38.8934 33.4658 38.8934H31.3742C31.165 38.8934 30.9559 38.9631 30.8164 39.0329C30.677 38.9631 30.4678 38.8934 30.2587 38.8934H28.2368C27.8882 38.8934 27.6093 39.0329 27.4001 39.242C26.8423 38.8237 26.0057 38.5448 24.8204 38.5448C23.4957 38.5448 22.5196 38.9631 21.8224 39.7998C21.683 39.6604 21.6133 39.5907 21.4738 39.5209C21.8921 39.1723 22.171 38.6843 22.3802 37.987C22.3802 37.9173 22.3802 37.7779 22.3802 37.7081C22.3802 37.4292 22.3105 37.1504 22.1013 36.9412C21.8921 36.6623 21.5435 36.4531 21.1949 36.4531H20.0794C19.7308 36.4531 19.3822 36.5926 19.173 36.8715C19.1033 36.8715 18.8941 36.9412 18.4758 37.0109C18.4061 37.0109 18.4061 37.0109 18.3364 37.0109C16.3842 37.4292 15.0595 39.4512 15.0595 42.0309V44.3318C15.0595 45.3776 15.3384 46.2143 15.8264 46.8418H14.6412C13.9439 46.8418 13.3165 47.051 12.8284 47.3996C12.6193 47.051 12.2706 46.8418 11.7826 46.8418H8.57544C8.22683 46.8418 7.87822 46.9813 7.66906 47.2602C7.4599 46.9813 7.1113 46.8418 6.76269 46.8418H3.62524C2.99776 46.8418 2.43998 47.3996 2.43998 48.0271V49.3518C2.43998 49.8399 2.43999 50.1188 2.37026 50.328C2.02166 50.5371 1.8125 50.8857 1.8125 51.3041V53.1866C1.8125 53.8141 2.37027 54.3719 2.99775 54.3719H4.18301C4.53161 54.3719 4.88022 54.2324 5.08939 53.9536C5.29855 54.2324 5.64716 54.3719 5.99576 54.3719H7.18102C7.73878 54.3719 8.15711 54.0233 8.29655 53.5352L8.71487 53.6049C9.27264 53.6049 9.62125 53.4655 9.96986 53.2563C10.179 53.3958 10.3882 53.4655 10.5973 53.4655H11.8523C12.0615 53.4655 12.2706 53.3958 12.4101 53.3261C12.5495 53.3958 12.7587 53.4655 12.9679 53.4655H14.2228C14.3623 53.4655 14.5017 53.3958 14.6412 53.3958C14.7806 53.4655 14.92 53.4655 15.0595 53.4655H16.2447C16.8722 53.4655 17.43 52.9077 17.43 52.2802V48.0271C17.43 47.9574 17.43 47.9574 17.43 47.9574C17.8483 48.0968 18.3364 48.1666 18.8244 48.1666C19.94 48.1666 20.8463 47.8179 21.5435 47.2602C22.0316 47.8179 22.7985 48.1666 23.7746 48.1666C24.3324 48.1666 24.7507 48.0271 25.169 47.8877C25.3085 47.9574 25.4479 47.9574 25.5874 47.9574H27.5395C27.679 47.9574 27.7487 47.9574 27.8882 47.8877C27.9579 47.8877 28.0973 47.9574 28.167 47.9574H30.1889C30.2587 47.9574 30.2587 47.9574 30.3284 47.9574C30.2587 48.306 30.1889 48.7243 30.1889 49.2124C30.1889 49.2124 30.1889 49.2124 30.1889 49.1427C30.1192 51.1646 30.1889 51.7224 30.1889 52.0013V52.071C30.1889 52.1408 30.1889 52.2802 30.1889 52.3499C30.5375 53.9536 31.932 54.9297 33.9539 54.9297C34.9997 54.9297 35.7666 54.6508 36.3941 54.2324C36.8822 54.7205 37.5794 54.9297 38.4857 54.9297C38.9738 54.9297 39.4618 54.7902 39.8104 54.6508C39.9499 54.7205 40.0893 54.7205 40.2288 54.7205H41.2746V55.6966C41.2746 56.3241 41.8324 56.8819 42.4598 56.8819H43.2268C45.0395 56.8819 46.1551 56.115 46.5734 54.6508C46.7128 54.6508 46.7825 54.7205 46.922 54.7205H48.9439C49.1531 54.7205 49.3622 54.6508 49.5017 54.5811C49.6411 54.6508 49.8503 54.7205 50.0594 54.7205H52.0116C52.0813 54.7205 52.1511 54.7205 52.1511 54.7205C52.2208 54.7205 52.2905 54.7205 52.2905 54.7205H55.0793C55.916 54.7205 56.5435 54.5113 56.9618 54.3022C57.171 54.5811 57.5196 54.7205 57.8682 54.7205H59.8901C60.5176 54.7205 61.0754 54.1627 61.0754 53.5352V46.8418C61.1451 46.1446 60.5873 45.5868 59.9598 45.5868ZM7.1113 53.2563H5.92603L5.85631 52.3499H4.18301V53.2563H2.99775V51.3738H3.20692C3.55553 50.7463 3.62524 50.3977 3.62524 49.4216V48.0968H6.76269V51.3738H7.18102V53.2563H7.1113ZM11.8523 52.4197H10.5973V49.073H9.90014V50.3977C9.90014 52.071 9.48181 52.4894 8.71487 52.4894C8.50571 52.4894 8.22683 52.3499 8.08739 52.3499V51.4435C8.15711 51.4435 8.15711 51.4435 8.22683 51.4435C8.64516 51.4435 8.64515 51.0949 8.64515 49.7702V48.0271H11.922V52.4197H11.8523ZM16.3145 52.4197H15.1292V50.8858H14.7806L14.2228 52.4197H12.9679L13.8045 50.7463C13.5953 50.5371 13.2467 50.328 13.177 49.7702C13.0376 48.8638 13.5953 48.0968 14.7109 48.0968H16.3842V52.4197H16.3145ZM21.5435 44.4015C21.5435 46.3538 20.428 47.051 18.8941 47.051C17.3603 47.051 16.2447 46.4235 16.2447 44.4015V42.1007C16.2447 40.2182 17.1511 38.6145 18.5455 38.2659C19.4519 38.1265 19.94 37.9173 20.0097 37.7081H21.1252C20.9161 38.6843 20.3583 38.8934 19.3822 39.242C18.4758 39.4512 18.1272 39.7998 17.8483 41.1246H17.9878C18.3364 40.497 18.9639 40.2182 19.7308 40.2182C20.7766 40.2182 21.4738 40.9851 21.4738 42.3098V44.4015H21.5435ZM21.1252 38.0567C21.0555 38.1962 20.9858 38.3356 20.916 38.4054C20.9858 38.3356 21.0555 38.1962 21.1252 38.0567ZM25.5874 46.7721L25.4479 46.0052C25.2388 46.5629 24.8204 46.9813 23.7746 46.9813C22.7288 46.9813 22.1013 46.5629 22.1013 45.0988C22.1013 44.1226 22.5196 43.5649 23.3563 43.1465L24.681 42.519C25.169 42.3098 25.3085 42.1704 25.3085 41.7521C25.3085 41.4034 25.169 41.1943 24.681 41.1943C24.1929 41.1943 24.0535 41.5429 24.0535 41.9612V42.3098H22.1013C22.1013 40.9154 22.7985 39.7998 24.681 39.7998C26.5635 39.7998 27.3304 40.5668 27.3304 41.8915V45.7263C27.3304 46.3538 27.3304 46.6327 27.4698 46.8418H25.5874V46.7721ZM43.2268 39.9393H44.4818V42.0309L44.412 43.0071L45.5973 39.9393H47.0614V44.7501H45.667V42.519L45.8064 41.5429L44.6212 44.7501H43.1571V39.9393H43.2268ZM40.2288 53.4655L40.0893 52.6985C39.8802 53.2563 39.4618 53.6747 38.4857 53.6747C37.5794 53.6747 36.9519 53.326 36.8124 52.4894C36.6033 51.3041 37.0216 50.3977 37.9977 49.8399L39.4618 49.2124C39.9499 49.0032 40.0893 48.7941 40.0196 48.306C40.0196 48.1666 39.8802 47.9574 39.4618 47.9574C38.9738 47.9574 38.7646 48.1666 38.7646 48.9335H36.9519C36.9519 47.8179 37.4399 46.9813 38.5555 46.7024H37.7885V43.7043L38.0674 42.2401L36.3244 46.6327H35.1391C35.9061 46.8418 36.4638 47.3299 36.673 48.1666C36.7427 48.3757 36.7427 48.7243 36.7427 49.2821H34.7208C34.7905 48.5152 34.7208 48.5152 34.7208 48.3757C34.6511 48.0271 34.5116 47.9574 34.163 47.9574C33.8144 47.9574 33.6053 48.1666 33.6053 48.5152C33.5356 51.5133 33.5356 51.583 33.6053 51.7224C33.6053 51.9316 33.8144 52.1408 34.163 52.1408C34.5116 52.1408 34.7208 51.9316 34.7208 51.3738C34.7208 51.3041 34.7208 51.3041 34.6511 51.3041C34.6511 51.3041 34.6511 51.3041 34.6511 51.3738V50.6069H36.673V51.5133C36.6033 52.4894 35.9758 53.6049 34.0933 53.6049C32.6989 53.6049 31.7925 53.0472 31.5136 51.9316C31.5136 51.7224 31.4439 51.5133 31.5136 49.073C31.5136 47.5391 32.1411 46.9115 33.1172 46.6327H31.4439V43.9135H30.1889V46.6327H28.167V39.9393H30.1889V42.4493H31.3045V39.9393H33.3961V46.5629C33.6053 46.5629 33.7447 46.5629 33.9539 46.5629C34.0236 46.5629 34.0933 46.5629 34.0933 46.5629V39.9393H35.9061V42.9373L35.7666 44.2621L37.4399 39.9393H39.4618V46.5629C40.926 46.5629 41.6929 47.051 41.8324 47.8877C41.9718 48.4455 41.8324 52.4894 41.9021 53.1866C41.9718 53.326 41.9718 53.326 42.0415 53.3958H40.2288V53.4655ZM52.0116 53.4655H50.0594V50.816H48.9439V53.4655H46.922L46.9917 47.4693L45.4578 54.0233C45.2487 55.2086 44.4817 55.6966 43.2268 55.6966C42.8084 55.6966 42.5993 55.6966 42.4598 55.6966V54.2324C42.5296 54.2324 42.669 54.3719 42.8782 54.3719C43.2268 54.3719 43.4359 54.1627 43.3662 53.8141C43.2268 53.3958 42.8782 51.3738 42.5296 49.9794C42.3204 49.0032 41.9021 47.4693 41.8324 46.7721H43.8543C44.2029 48.6546 44.412 50.5371 44.4818 52.2802C44.6212 50.328 44.9001 48.6546 45.2487 46.7721H46.9917V47.4693L47.1311 46.7721H48.9439L48.8742 49.4216H49.9897V46.7721H51.9419V53.4655H52.0116ZM55.1491 53.4655H52.3602V46.7721H54.3821V49.2124H55.2885C56.4738 49.2124 57.2407 49.7702 57.4499 50.7463C57.5196 51.3738 57.659 53.4655 55.1491 53.4655ZM59.9598 53.4655H57.9379V46.7721H59.9598V53.4655Z" fill="#B0B1B2"/>
<path d="M14.3658 49.6286C14.3658 49.7681 14.5052 50.0469 14.8538 50.0469H15.063L14.9932 48.9314H14.8538C14.3658 49.0011 14.296 49.3497 14.3658 49.6286Z" fill="#B0B1B2"/>
<path d="M63.5856 15.6051H58.2171C57.729 15.6051 57.3107 15.884 57.1015 16.3721C57.1015 16.3721 56.1951 18.6729 55.4282 20.7646C55.4282 18.8124 55.4282 16.7904 55.4282 16.7904C55.4282 16.1629 54.8704 15.6051 54.243 15.6051H49.2928C49.0836 15.6051 48.8744 15.6749 48.6653 15.7446C48.4561 15.6051 48.1772 15.4657 47.8983 15.4657H42.5298C41.9023 15.4657 41.3446 16.0235 41.3446 16.651C41.3446 16.651 41.3446 21.2527 41.3446 22.7169C41.2051 22.7169 41.1354 22.7169 40.996 22.7169C40.7868 22.7169 40.6474 22.7169 40.6474 22.2288V16.651C40.6474 16.0235 40.0896 15.4657 39.4621 15.4657H34.0936C33.4661 15.4657 32.9083 16.0235 32.9083 16.651V18.8821C31.5836 16.1629 28.5856 14.9079 25.5876 14.9079C22.5199 14.9079 20.1494 15.9537 18.755 17.7665V10.5154C18.755 9.88786 18.1972 9.33008 17.5697 9.33008H1.18526C0.48805 9.33008 0 9.88786 0 10.5154V34.9184C0 35.5459 0.557771 36.1036 1.18526 36.1036H7.39043C8.01792 36.1036 8.57569 35.5459 8.57569 34.9184C8.57569 34.9184 8.57569 18.7427 8.57569 16.651C9.2729 16.651 9.55178 16.651 10.1793 16.651C10.1793 18.7427 10.1793 34.9184 10.1793 34.9184C10.1793 35.5459 10.737 36.1036 11.3645 36.1036H17.6394C18.2669 36.1036 18.8247 35.5459 18.8247 34.9184V33.8028C20.2191 35.6156 22.5896 36.6614 25.6573 36.6614C29.3526 36.6614 33.6753 34.7789 33.6753 29.5497V28.225C33.6753 27.8763 33.5358 27.5975 33.2569 27.3186C33.3964 27.1791 33.5358 26.97 33.6055 26.7608C34.4422 28.3644 36.1155 29.2708 38.4163 29.2708C39.6015 29.2708 40.5776 29.1314 41.4143 28.9919C41.4143 30.9442 41.4143 34.9184 41.4143 34.9184C41.4143 35.5459 41.9721 36.1036 42.5995 36.1036H47.9681C48.2469 36.1036 48.4561 36.0339 48.6653 35.8945C48.8744 36.0339 49.0836 36.1036 49.3625 36.1036H54.731C55.219 36.1036 55.6374 35.8248 55.8465 35.3367C55.8465 35.3367 56.7529 32.8964 57.5896 30.735C57.5896 32.8267 57.5896 34.9184 57.5896 34.9184C57.5896 35.5459 58.1473 36.1036 58.7748 36.1036H63.6553C64.3525 36.1036 64.8405 35.5459 64.8405 34.9184V16.7904C64.8405 16.0932 64.2828 15.6051 63.5856 15.6051ZM17.5697 34.9184H11.2948V15.4657H7.32071V34.9184H1.11554V10.5154H17.5697V34.9184ZM32.4203 26.4122H23.7749V29.2708C23.7749 30.8047 24.1932 31.5717 25.5876 31.5717C26.8426 31.5717 27.2609 30.6653 27.2609 29.2708V28.1552H32.4203V29.48C32.4203 33.8725 28.7948 35.4064 25.5876 35.4064C22.241 35.4064 18.6155 33.8725 18.6155 29.48V22.0196C18.6155 17.6271 22.241 16.0932 25.5876 16.0932C28.7948 16.0932 32.4203 17.7665 32.4203 22.1591V26.4122ZM26.2848 27.6672C26.2151 27.8066 26.1454 28.0158 26.1454 28.225V29.3405C26.1454 30.4561 25.9362 30.4561 25.6573 30.4561C25.0996 30.4561 25.0298 30.4561 25.0298 29.3405C25.0298 29.3405 25.0298 28.5039 25.0298 27.6672C25.3087 27.6672 25.7271 27.6672 26.2848 27.6672ZM47.8983 34.9184H42.5298V27.458C41.5537 27.8066 40.2987 28.0855 38.3466 28.0855C35.6274 28.0855 34.0936 26.5516 34.0936 24.0416V16.651H39.4621V22.2288C39.4621 23.2049 40.0199 23.9021 40.996 23.9021C41.5537 23.9021 42.1115 23.9021 42.5298 23.693V16.651H47.8983V34.9184ZM63.5856 34.9184H58.7051V26.97L59.1932 23.1352V22.9958L54.5916 34.8486H49.223V16.7207H54.1732V24.6691L53.6155 28.4341V28.5736L58.2171 16.7904H63.5856V34.9184Z" fill="#B0B1B2"/>
<path d="M25.5861 19.8568C24.3311 19.8568 23.7733 20.6238 23.7733 22.5063V23.2035H27.3291V22.5063C27.3291 20.6238 26.9108 19.8568 25.5861 19.8568ZM24.9586 21.9485C25.0283 21.0421 25.3072 21.0421 25.5861 21.0421C25.7952 21.0421 25.865 21.1118 25.865 21.1118C25.865 21.1118 26.0044 21.321 26.0741 21.9485C25.5861 21.9485 25.5164 21.9485 24.9586 21.9485Z" fill="#B0B1B2"/>
<path d="M33.3958 46.7018C33.2563 46.7018 33.1169 46.7715 32.9774 46.7715H33.3958V46.7018Z" fill="#B0B1B2"/>
<path d="M34.0938 46.7709H34.9304C34.6515 46.7012 34.4424 46.7012 34.0938 46.7012V46.7709Z" fill="#B0B1B2"/>
<path d="M39.4599 46.7012H39.3902C39.0415 46.7012 38.6929 46.7709 38.4141 46.8406H39.4599V46.7012Z" fill="#B0B1B2"/>
</g>
<defs>
<clipPath id="clip0_1_297">
<rect width="361" height="69" fill="white"/>
</clipPath>
</defs>
</svg>
